<svg width="46" height="46" viewBox="0 0 46 46" fill="none" xmlns="http://www.w3.org/2000/svg">
    <path d="M34.5103 8.28746C31.1935 5.68702 27.2133 4.3125 23 4.3125C12.6957 4.3125 4.3125 12.6957 4.3125 23C4.3125 27.2133 5.68702 31.1935 8.28755 34.5103C8.44621 34.7127 8.68385 34.8374 8.94053 34.8528C8.95859 34.854 8.97665 34.8545 8.99471 34.8545C9.23225 34.8545 9.461 34.7604 9.62999 34.5914L34.5915 9.6299C34.7732 9.44815 34.8684 9.19713 34.853 8.94053C34.8374 8.68385 34.7127 8.44612 34.5103 8.28746ZM12.83 27.7617C12.3404 27.7617 11.9421 27.3634 11.9421 26.8738V18.5321C11.9421 18.0425 12.3404 17.6441 12.83 17.6441H17.1081V24.5717L13.9182 27.7617H12.83ZM28.114 13.566L18.905 22.775V17.3389L28.114 13.4048V13.566ZM29.8769 11.8031C29.8195 11.5971 29.6904 11.4151 29.5075 11.2942C29.2556 11.1278 28.9369 11.0993 28.6595 11.2177L17.8227 15.8473H12.83C11.3497 15.8473 10.1453 17.0516 10.1453 18.5321V26.8738C10.1453 28.1363 11.0215 29.1973 12.1975 29.4826L9.0974 32.5826C7.13898 29.7587 6.10938 26.4667 6.10938 23C6.10938 13.6865 13.6864 6.10938 23 6.10938C26.4667 6.10938 29.7587 7.13898 32.5827 9.09731L29.8769 11.8031Z"
          fill="#6EBC61"/>
    <path d="M11.1472 37.0597C11.1626 37.3163 11.2873 37.5541 11.4897 37.7128C14.8065 40.3132 18.7867 41.6877 23 41.6877C33.3043 41.6877 41.6875 33.3045 41.6875 23.0002C41.6875 18.7869 40.313 14.8068 37.7125 11.4899C37.5538 11.2876 37.3162 11.1629 37.0595 11.1474C36.8029 11.1304 36.5519 11.2271 36.3701 11.4089L11.4086 36.3703C11.2269 36.5522 11.1316 36.8032 11.1472 37.0597ZM28.114 22.2063V32.0013L21.2508 29.0694L28.114 22.2063ZM19.8817 30.4386L28.6594 34.1885C28.7727 34.2368 28.8928 34.2607 29.0123 34.2607C29.1858 34.2607 29.3583 34.2105 29.5075 34.1121C29.7593 33.9457 29.9109 33.6642 29.9109 33.3623V20.4095L36.9027 13.4177C38.861 16.2416 39.8906 19.5335 39.8906 23.0002C39.8906 32.3137 32.3136 39.8909 23 39.8909C19.5333 39.8909 16.2413 38.8613 13.4173 36.9029L19.8817 30.4386Z"
          fill="#6EBC61"/>
    <path d="M39.2634 6.73648C34.9193 2.39245 29.1435 0 23 0C18.387 0 13.9367 1.36077 10.1302 3.93516C9.71912 4.21313 9.6113 4.77169 9.88928 5.18273C10.1673 5.59358 10.7256 5.70148 11.1368 5.4236C14.6449 3.05091 18.7472 1.79688 23 1.79688C34.6915 1.79688 44.2031 11.3085 44.2031 23C44.2031 34.6915 34.6915 44.2031 23 44.2031C11.3085 44.2031 1.79688 34.6915 1.79688 23C1.79688 18.6104 3.12611 14.3992 5.64102 10.8215C5.92636 10.4155 5.82861 9.85514 5.4227 9.5698C5.01679 9.28436 4.45634 9.38211 4.171 9.78812C1.44226 13.6699 0 18.2386 0 23C0 29.1435 2.39236 34.9193 6.73657 39.2635C11.0807 43.6076 16.8565 46 23 46C29.1435 46 34.9193 43.6076 39.2635 39.2635C43.6076 34.9193 46 29.1435 46 23C46 16.8565 43.6076 11.0807 39.2634 6.73648Z"
          fill="#6EBC61"/>
    <path d="M7.52261 8.12199C7.7589 8.12199 7.9907 8.02595 8.15781 7.85875C8.32492 7.69074 8.42105 7.45993 8.42105 7.22355C8.42105 6.98637 8.32492 6.75457 8.15781 6.58746C7.9907 6.42044 7.7589 6.32422 7.52261 6.32422C7.28632 6.32422 7.05453 6.42035 6.88742 6.58746C6.72031 6.75457 6.62418 6.98637 6.62418 7.22355C6.62418 7.45993 6.72031 7.69074 6.88742 7.85875C7.05453 8.02595 7.28632 8.12199 7.52261 8.12199Z"
          fill="#6EBC61"/>
    <path d="M32.2774 24.2159C32.004 24.6299 32.1181 25.1872 32.5321 25.4605C32.6845 25.5613 32.8563 25.6093 33.0262 25.6093C33.3179 25.6093 33.6041 25.4675 33.7768 25.2058C34.6695 23.8537 34.6622 22.1112 33.7584 20.7665C33.4815 20.3547 32.9233 20.2451 32.5116 20.5221C32.0998 20.7989 31.9904 21.3571 32.2672 21.769C32.7655 22.5102 32.7694 23.4705 32.2774 24.2159Z"
          fill="#6EBC61"/>
    <path d="M35.0276 28.0123C35.1959 28.1531 35.4005 28.222 35.6041 28.222C35.8608 28.222 36.1157 28.1125 36.2934 27.9004C38.6718 25.0607 38.6718 20.9386 36.2935 18.0988C35.975 17.7187 35.4082 17.6684 35.0278 17.987C34.6474 18.3055 34.5973 18.8722 34.9159 19.2526C36.7343 21.4237 36.7343 24.5755 34.9158 26.7466C34.5971 27.127 34.6472 27.6937 35.0276 28.0123Z"
          fill="#6EBC61"/>
</svg>
