<svg width="56" height="56" viewBox="0 0 56 56" fill="none" xmlns="http://www.w3.org/2000/svg">
    <path d="M13.9352 27.125H24.5648C25.4739 27.125 26.2404 27.8346 26.3095 28.7411L27.125 39.375C27.125 40.3401 26.3401 41.125 25.375 41.125H13.125C12.1599 41.125 11.375 40.3401 11.3776 39.3076L12.1905 28.7403C12.2605 27.8346 13.027 27.125 13.9352 27.125ZM25.3776 39.4424L24.5648 28.875H20.125V39.4135L25.3776 39.4424ZM18.375 39.4039V28.875H13.9352L13.1233 39.375L18.375 39.4039Z"
          fill="#6EBC61"/>
    <path d="M5.25 34.125H7.945L8.41925 28.4392C8.60388 26.2246 10.1929 24.4239 12.25 23.8411V20.125H14V23.625H18.9297L41.125 4.844V3.0625C41.125 1.85675 42.1067 0.875 43.3125 0.875C43.7824 0.875 44.2479 1.02987 44.625 1.3125L47.0759 3.15C47.733 3.6435 48.125 4.42838 48.125 5.25V5.76275L52.6059 10.2436C53.102 10.7389 53.375 11.3986 53.375 12.1004V14.5128C53.375 15.5531 52.6172 16.415 51.625 16.5883V25.375C52.5901 25.375 53.375 26.1599 53.375 27.125V28.875C53.375 29.2687 53.2394 29.6284 53.0189 29.9215C54.3751 31.3539 55.125 33.2141 55.125 35.1943C55.125 39.4292 51.6793 42.875 47.4443 42.875H44.1683L44.5585 43.8497C44.9584 44.8525 45.9148 45.5 46.9945 45.5C48.5625 45.5 49.9783 46.368 50.6896 47.7654L51.2627 48.8915C51.359 49.0805 51.5226 49.2205 51.7247 49.287L52.1063 49.413C53.3059 49.8068 54.3174 50.6809 54.8826 51.8096C55.041 52.1264 55.125 52.4808 55.125 52.8343C55.125 54.0978 54.0977 55.125 52.8342 55.125H13.125H11.375H10.5C7.1225 55.125 4.375 52.3775 4.375 49C4.375 47.2868 5.08375 45.738 6.22125 44.625H3.5C2.05275 44.625 0.875 43.4473 0.875 42V38.5C0.875 36.0876 2.83762 34.125 5.25 34.125ZM2.786 37.625H4.375V36.036C3.63388 36.3002 3.05025 36.8839 2.786 37.625ZM7.875 35.875H6.125V37.625H7.875V35.875ZM21.6387 23.625H24.6943C26.6061 23.625 28.2809 24.6435 29.1988 26.1774L41.125 11.0714V7.1365L21.6387 23.625ZM31.9909 44.3616L34.8661 43.211C35.1645 43.0911 35.4244 42.8925 35.6169 42.6361L37.0125 40.775C37.6696 39.8983 38.717 39.375 39.8125 39.375H41.125V37.9593L42.875 37.0843V30.625C41.9099 30.625 41.125 29.8401 41.125 28.875V13.895L29.8909 28.1251C29.9145 28.2931 29.9311 28.4646 29.939 28.6379L30.5996 43.4551C31.1054 43.6922 31.5718 44.0003 31.9909 44.3616ZM46.375 30.625H44.625V38.1657L42.875 39.0407V41.125H46.375V30.625ZM51.625 12.1004C51.625 11.8668 51.534 11.6463 51.3686 11.4809L48.125 8.23725V11.8878L51.0064 14.7691C51.2146 14.9774 51.625 14.8085 51.625 14.5128V12.1004ZM49.875 16.0939C49.8409 16.0632 49.8015 16.0396 49.7691 16.0064L48.125 14.3622V25.375H49.875V16.0939ZM51.625 27.125H46.375V5.25C46.375 4.97613 46.2446 4.7145 46.025 4.55L43.5759 2.71338C43.3038 2.5095 42.875 2.7265 42.875 3.0625L42.8741 28.875H51.625V27.125ZM53.375 35.1943C53.375 33.6096 52.7581 32.1204 51.6381 31.0004L51.2627 30.625H48.125V41.083C51.0755 40.7435 53.375 38.234 53.375 35.1943ZM52.8342 53.375C53.1326 53.375 53.375 53.1326 53.375 52.8343C53.375 52.7511 53.3557 52.6671 53.3181 52.5928C52.9611 51.8779 52.3198 51.3249 51.5603 51.0755L51.1779 50.9495C50.5347 50.7386 50.0106 50.2897 49.7026 49.6851L49.1295 48.559C48.7191 47.7514 47.901 47.25 46.9945 47.25C45.1946 47.25 43.6004 46.1702 42.9319 44.4999L42.2319 42.749C41.5852 42.4917 41.125 41.8626 41.125 41.125H39.8125C39.2648 41.125 38.7415 41.3866 38.4125 41.825L37.0169 43.6861C36.6319 44.1997 36.113 44.597 35.5171 44.835L33.1922 45.7651C33.7794 46.7057 34.125 47.8117 34.125 49C34.125 50.7132 33.4163 52.262 32.2787 53.375H52.8342ZM20.125 49.875V53.375H21.875V49.875H20.125ZM16.625 49.875V53.375H18.375V49.875H16.625ZM14.875 53.375V49.875H13.125V53.375H14.875ZM11.375 53.375V49.875H9.625V53.2866C9.90762 53.3444 10.2007 53.375 10.5 53.375H11.375ZM6.125 49C6.125 50.4236 6.81887 51.6784 7.875 52.4772V49.875C7.875 48.9099 8.65987 48.125 9.625 48.125H25.536C25.8982 47.1091 26.8608 46.375 28 46.375C29.4473 46.375 30.625 47.5527 30.625 49C30.625 50.4473 29.4473 51.625 28 51.625C26.8608 51.625 25.8982 50.8909 25.536 49.875H23.625V53.375H28C30.4124 53.375 32.375 51.4124 32.375 49C32.375 46.5876 30.4124 44.625 28 44.625H10.5C8.08762 44.625 6.125 46.5876 6.125 49ZM27.125 49C27.125 49.4821 27.5179 49.875 28 49.875C28.4821 49.875 28.875 49.4821 28.875 49C28.875 48.5179 28.4821 48.125 28 48.125C27.5179 48.125 27.125 48.5179 27.125 49ZM3.5 42.875H28C28.2791 42.875 28.5548 42.8934 28.8242 42.9301L28.1908 28.7158C28.1059 26.8424 26.5702 25.375 24.6943 25.375H13.65C11.844 25.375 10.3127 26.7846 10.1622 28.5845L9.625 35.035V37.625C9.625 38.5901 8.84013 39.375 7.875 39.375H2.625V42C2.625 42.4821 3.01788 42.875 3.5 42.875Z"
          fill="#6EBC61"/>
    <path d="M39.375 44.625H37.625V46.375H39.375V44.625Z" fill="#6EBC61"/>
    <path d="M37.625 49.875H35.875V51.625H37.625V49.875Z" fill="#6EBC61"/>
    <path d="M42.875 48.125H41.125V49.875H42.875V48.125Z" fill="#6EBC61"/>
    <path d="M46.375 49.875H44.625V51.625H46.375V49.875Z" fill="#6EBC61"/>
</svg>
