<svg width="56" height="56" viewBox="0 0 56 56" fill="none" xmlns="http://www.w3.org/2000/svg">
    <g clip-path="url(#clip0)">
        <path d="M0.933536 56.1084H45.7334C46.2491 56.1084 46.667 55.6905 46.667 55.1753V46.7751H53.2C53.7157 46.7751 54.1335 46.3573 54.1335 45.842V36.5084C54.1335 35.9931 53.7157 35.5753 53.2 35.5753H46.667V27.1752C46.667 26.6595 46.2491 26.2416 45.7334 26.2416H44.0206C44.1522 25.6315 44.0129 24.9941 43.639 24.4942L39.4217 18.8725L41.3691 17.4117C42.2343 16.764 42.7175 15.7258 42.6564 14.6465L42.5628 12.9658C42.5372 12.5099 42.7414 12.0715 43.1067 11.7977L45.0537 10.3373L45.8731 11.4294C46.0214 11.6272 46.2423 11.7584 46.4875 11.7934C46.5311 11.7994 46.5751 11.8028 46.6195 11.8024C46.8216 11.8028 47.0181 11.737 47.1796 11.6157L54.8804 5.83884C56.1168 4.91128 56.3676 3.15658 55.44 1.9197L54.9214 1.22755C53.9925 -0.00761824 52.2387 -0.257558 51.0014 0.668715L43.3015 6.4451C42.8892 6.75443 42.8055 7.33976 43.1148 7.75205L43.9338 8.8441L41.9869 10.3049C41.1217 10.9526 40.6381 11.9903 40.6996 13.0696L40.7927 14.7504C40.8188 15.2062 40.6146 15.645 40.2493 15.9185L38.3023 17.3792L34.0845 11.7575C33.6432 11.1598 32.9262 10.8304 32.185 10.8846C31.4779 10.9359 30.846 11.3461 30.5106 11.9711L22.8415 26.2416H0.933536C0.417848 26.2416 0 26.6595 0 27.1752V36.5084C0 37.0241 0.417848 37.4419 0.933536 37.4419H7.46658V44.9085H0.933536C0.417848 44.9085 0 45.3263 0 45.842V55.1753C0 55.6905 0.417848 56.1084 0.933536 56.1084ZM52.1216 2.16152C52.5335 1.85219 53.1184 1.9355 53.4281 2.3478L53.9468 3.03994C54.2557 3.45223 54.172 4.03671 53.7601 4.34603L46.8058 9.56316L45.1673 7.37821L52.1216 2.16152ZM16.8002 46.7751H29.8667V54.2417H16.8002V46.7751ZM24.2668 37.4419H37.3333V44.9085H24.2668V37.4419ZM44.8003 54.2417H31.7334V46.7751H44.8003V54.2417ZM52.2669 44.9085H39.1999V37.4419H52.2669V44.9085ZM44.8003 35.5753H31.7334V30.1403L41.2866 28.1083H44.8003V35.5753ZM32.1555 12.8555C32.1871 12.7902 32.2529 12.7483 32.3255 12.7461L32.3439 12.7453C32.443 12.747 32.5349 12.7961 32.5913 12.8773L36.8082 18.499L32.9579 21.3877C32.5456 21.697 32.4618 22.2819 32.7712 22.6946C33.0805 23.1069 33.6654 23.1902 34.0781 22.8813L37.9285 19.9927L42.1458 25.6144C42.2129 25.6964 42.2325 25.8071 42.1971 25.9067C42.1749 25.9759 42.1163 26.0267 42.0446 26.0395L23.5281 29.977C23.4132 29.995 23.2978 29.9459 23.2316 29.8502C23.1572 29.7604 23.1423 29.6357 23.1931 29.5306L32.1555 12.8555ZM21.7388 30.9704C22.2361 31.6544 23.0897 31.9804 23.9165 31.8027L29.8667 30.5372V35.5753H16.8002V28.1083H21.8379L21.5486 28.6466C21.1487 29.3913 21.2235 30.3009 21.7388 30.9704ZM1.86664 31.842H3.73329C4.24898 31.842 4.66682 31.4241 4.66682 30.9084C4.66682 30.3932 4.24898 29.9753 3.73329 29.9753H1.86664V28.1083H14.9336V35.5753H1.86664V31.842ZM9.33322 37.4419H22.4002V44.9085H9.33322V37.4419ZM1.86664 46.7751H14.9336V54.2417H1.86664V46.7751Z"
              fill="#6EBC61"/>
        <path d="M12.1334 30.9082C12.1334 30.3929 11.7156 29.9751 11.1999 29.9751H7.46658C6.95132 29.9751 6.53347 30.3929 6.53347 30.9082C6.53347 31.4239 6.95132 31.8417 7.46658 31.8417H11.1999C11.7156 31.8417 12.1334 31.4239 12.1334 30.9082Z"
              fill="#6EBC61"/>
    </g>
    <defs>
        <clipPath id="clip0">
            <rect width="56" height="56" fill="white"/>
        </clipPath>
    </defs>
</svg>
