<svg width="56" height="56" viewBox="0 0 56 56" fill="none" xmlns="http://www.w3.org/2000/svg">
    <g clip-path="url(#clip0)">
        <path d="M0.903411 28.8735C0.404158 28.8735 0 28.4694 0 27.9701V13.5186C0 13.0199 0.404158 12.6157 0.903411 12.6157H15.3549C15.8536 12.6157 16.2578 13.0199 16.2578 13.5186C16.2578 14.0179 15.8536 14.422 15.3549 14.422H1.80631V27.9701C1.80631 28.4694 1.40215 28.8735 0.903411 28.8735Z"
              fill="#6EBC61"/>
        <path d="M0.903411 37.9056C0.404158 37.9056 0 37.5014 0 37.0027V27.0285C0 26.6776 0.203629 26.3571 0.521994 26.2093L7.74773 22.8495C7.98961 22.7383 8.26818 22.7383 8.51005 22.8495L14.7688 25.7592C15.2216 25.97 15.4174 26.507 15.2076 26.9598C14.9967 27.412 14.4613 27.6094 14.007 27.398L8.12915 24.6645L1.80631 27.6048V37.0032C1.80631 37.5014 1.40215 37.9056 0.903411 37.9056Z"
              fill="#6EBC61"/>
        <path d="M0.903411 48.8556C0.404158 48.8556 0 48.4515 0 47.9522V36.5536C0 36.2518 0.149879 35.9706 0.401574 35.8032L7.17561 31.2701C7.47898 31.0675 7.87591 31.0675 8.1798 31.2701L14.9538 35.8032C15.205 35.9706 15.3549 36.2518 15.3549 36.5536V46.977C15.3549 47.4757 14.9507 47.8799 14.4515 47.8799C13.9522 47.8799 13.5481 47.4757 13.5481 46.977V37.0358L7.67745 33.1074L1.80631 37.0358V47.9522C1.80631 48.4515 1.40215 48.8556 0.903411 48.8556Z"
              fill="#6EBC61"/>
        <path d="M14.4515 28.8735C13.9522 28.8735 13.5481 28.4694 13.5481 27.9701V13.5186C13.5481 13.0199 13.9522 12.6157 14.4515 12.6157H28.903C29.4022 12.6157 29.8064 13.0199 29.8064 13.5186C29.8064 14.0179 29.4022 14.422 28.903 14.422H15.3549V27.9701C15.3549 28.4694 14.9507 28.8735 14.4515 28.8735Z"
              fill="#6EBC61"/>
        <path d="M14.4515 37.9056C13.9522 37.9056 13.5481 37.5014 13.5481 37.0027V27.0285C13.5481 26.6776 13.7517 26.3571 14.0706 26.2093L21.2963 22.8495C21.5377 22.7383 21.8163 22.7383 22.0586 22.8495L28.3174 25.7592C28.7696 25.97 28.966 26.507 28.7557 26.9598C28.5448 27.412 28.0104 27.6094 27.5556 27.398L21.6772 24.6645L15.3549 27.6048V37.0032C15.3549 37.5014 14.9507 37.9056 14.4515 37.9056Z"
              fill="#6EBC61"/>
        <path d="M14.4515 47.9522C13.9522 47.9522 13.5481 47.5481 13.5481 47.0493V36.5536C13.5481 36.2518 13.6985 35.9706 13.9496 35.8032L20.7237 31.2701C21.0276 31.0675 21.4245 31.0675 21.7279 31.2701L28.5019 35.8032C28.7531 35.9706 28.903 36.2518 28.903 36.5536V46.977C28.903 47.4757 28.4988 47.8799 27.9996 47.8799C27.5008 47.8799 27.0967 47.4757 27.0967 46.977V37.0358L21.2255 33.1074L15.3549 37.0358V47.0493C15.3549 47.5481 14.9507 47.9522 14.4515 47.9522Z"
              fill="#6EBC61"/>
        <path d="M27.9996 28.8735C27.5008 28.8735 27.0967 28.4694 27.0967 27.9701V13.5186C27.0967 13.0199 27.5008 12.6157 27.9996 12.6157H35.2253C35.7245 12.6157 36.1287 13.0199 36.1287 13.5186C36.1287 14.0179 35.7245 14.422 35.2253 14.422H28.903V27.9701C28.903 28.4694 28.4988 28.8735 27.9996 28.8735Z"
              fill="#6EBC61"/>
        <path d="M27.9996 37.9054C27.5008 37.9054 27.0967 37.5012 27.0967 37.0025V27.0283C27.0967 26.6774 27.3003 26.3569 27.6187 26.2091L34.3927 23.0591C34.847 22.8518 35.3824 23.0456 35.5933 23.4973C35.8031 23.9501 35.6072 24.487 35.1545 24.6979L28.903 27.604V37.0025C28.903 37.5012 28.4988 37.9054 27.9996 37.9054Z"
              fill="#6EBC61"/>
        <path d="M27.9996 47.9522C27.5008 47.9522 27.0967 47.5481 27.0967 47.0493V36.5536C27.0967 36.2518 27.2465 35.9706 27.4982 35.8032L34.2723 31.2701C34.5756 31.0675 34.9726 31.0675 35.2759 31.2701L42.0505 35.8032C42.3017 35.9706 42.4516 36.2518 42.4516 36.5536V46.977C42.4516 47.4757 42.0474 47.8799 41.5487 47.8799C41.0494 47.8799 40.6453 47.4757 40.6453 46.977V37.0358L34.7746 33.1074L28.903 37.0358V47.0493C28.903 47.5481 28.4988 47.9522 27.9996 47.9522Z"
              fill="#6EBC61"/>
        <path d="M55.0962 37.9055C54.5975 37.9055 54.1933 37.5014 54.1933 37.0026V14.422H48.2896C47.7909 14.422 47.3862 14.0179 47.3862 13.5186C47.3862 13.0199 47.7909 12.6157 48.2896 12.6157H55.0962C55.5955 12.6157 55.9996 13.0199 55.9996 13.5186V37.0026C55.9996 37.5014 55.5955 37.9055 55.0962 37.9055Z"
              fill="#6EBC61"/>
        <path d="M55.0316 27.4818C54.905 27.4818 54.7753 27.4544 54.6518 27.3975L48.7739 24.6646L48.67 24.7132C48.2193 24.9256 47.6818 24.7271 47.4705 24.2733C47.2606 23.8211 47.4575 23.2852 47.9098 23.0743L48.394 22.849C48.6338 22.7378 48.9134 22.7378 49.1553 22.849L55.4141 25.7587C55.8668 25.9696 56.0627 26.5065 55.8529 26.9593C55.6989 27.2885 55.3722 27.4818 55.0316 27.4818Z"
              fill="#6EBC61"/>
        <path d="M41.5481 37.9055C41.0489 37.9055 40.6447 37.5014 40.6447 37.0026V27.0284C40.6447 26.5292 41.0489 26.125 41.5481 26.125C42.0469 26.125 42.451 26.5292 42.451 27.0284V37.0026C42.451 37.5014 42.0469 37.9055 41.5481 37.9055Z"
              fill="#6EBC61"/>
        <path d="M55.0962 48.7833C54.5975 48.7833 54.1933 48.3791 54.1933 47.8799V37.0358L48.3222 33.1074L42.451 37.0358V47.0493C42.451 47.5481 42.0469 47.9522 41.5481 47.9522C41.0489 47.9522 40.6447 47.5481 40.6447 47.0493V36.5536C40.6447 36.2518 40.7946 35.9706 41.0463 35.8032L47.8203 31.2701C48.1237 31.0675 48.5212 31.0675 48.8245 31.2701L55.5986 35.8032C55.8503 35.9706 56.0001 36.2518 56.0001 36.5536V47.8799C55.9996 48.3791 55.5955 48.7833 55.0962 48.7833Z"
              fill="#6EBC61"/>
        <path d="M55.0962 53.4804C54.9241 53.4804 54.752 53.4313 54.6032 53.3341L48.1361 49.1199L41.7792 53.1945C41.4748 53.3878 41.0861 53.3837 40.7889 53.1852L34.7395 49.1313L28.6533 53.1863C28.3505 53.3878 27.9572 53.3878 27.6528 53.1878L21.4953 49.1065L14.3982 53.2163C14.0861 53.3971 13.6948 53.3744 13.4049 53.1579L8.03199 49.1406L1.38561 53.3418C1.10601 53.5165 0.754049 53.5279 0.467211 53.3692C0.178822 53.2106 0 52.9077 0 52.578V47.9529C0 47.6428 0.159182 47.3549 0.420696 47.189L7.59941 42.6565C7.91105 42.4585 8.31108 42.4704 8.61187 42.689L14.1941 46.7332L21.1857 42.6405C21.4829 42.4668 21.855 42.4766 22.1418 42.6684L28.243 46.7255L34.3529 42.6684C34.6563 42.4673 35.0501 42.4678 35.3514 42.6673L41.4825 46.728L47.6488 42.6663C47.9495 42.4673 48.3377 42.4678 48.6385 42.6637L55.5893 47.1963C55.8446 47.3632 55.9991 47.648 55.9991 47.9534V52.5785C55.9991 52.9103 55.8177 53.2147 55.5262 53.3729C55.3918 53.4442 55.2445 53.4804 55.0962 53.4804ZM34.7415 47.1415C34.9173 47.1415 35.0925 47.1921 35.2439 47.294L41.3026 51.3547L47.6529 47.2841C47.9537 47.0924 48.3366 47.0924 48.6338 47.2878L54.1933 50.9107V48.4413L48.1485 44.499L41.9787 48.5633C41.6758 48.7633 41.2846 48.7612 40.9838 48.5628L34.8542 44.5036L28.7438 48.5617C28.4394 48.7633 28.0461 48.7617 27.7432 48.5617L21.6111 44.484L14.5983 48.5891C14.2892 48.77 13.9031 48.7524 13.6122 48.5411L8.04698 44.5098L1.80631 48.4496V50.9381L7.59269 47.281C7.90743 47.0826 8.31521 47.0955 8.616 47.3213L14.0096 51.3541L21.0746 47.2635C21.3702 47.0914 21.7403 47.1022 22.0261 47.2914L28.1505 51.3505L34.2402 47.2929C34.3917 47.1916 34.5669 47.1415 34.7415 47.1415Z"
              fill="#6EBC61"/>
        <path d="M47.8705 9.0025H35.2253C34.7266 9.0025 34.3224 8.59834 34.3224 8.09961V3.58307C34.3224 3.08433 34.7266 2.68018 35.2253 2.68018H47.8705C48.3697 2.68018 48.7739 3.08433 48.7739 3.58307V8.09961C48.7739 8.59834 48.3697 9.0025 47.8705 9.0025ZM36.1287 7.1962H46.9676V4.48648H36.1287V7.1962Z"
              fill="#6EBC61"/>
        <path d="M41.512 27.4817C41.4102 27.4817 41.3083 27.4652 41.2112 27.4305L34.9245 25.2097C34.5638 25.0816 34.3224 24.7405 34.3224 24.3575V8.0997C34.3224 7.60045 34.7266 7.19629 35.2253 7.19629H47.8705C48.3697 7.19629 48.7739 7.60045 48.7739 8.0997V24.3575C48.7739 24.7415 48.5315 25.0831 48.1687 25.2108L41.8102 27.4316C41.713 27.4652 41.6127 27.4817 41.512 27.4817ZM36.1287 23.7187L41.5135 25.6216L46.9676 23.7161V9.0026H36.1287V23.7187Z"
              fill="#6EBC61"/>
        <path d="M47.8705 13.5187H42.451C41.9523 13.5187 41.5481 13.1146 41.5481 12.6158C41.5481 12.1166 41.9523 11.7124 42.451 11.7124H47.8705C48.3697 11.7124 48.7739 12.1166 48.7739 12.6158C48.7739 13.1146 48.3697 13.5187 47.8705 13.5187Z"
              fill="#6EBC61"/>
        <path d="M40.6447 18.0353H35.2253C34.7266 18.0353 34.3224 17.6307 34.3224 17.1319C34.3224 16.6327 34.7266 16.2285 35.2253 16.2285H40.6447C41.144 16.2285 41.5481 16.6327 41.5481 17.1319C41.5481 17.6307 41.144 18.0353 40.6447 18.0353Z"
              fill="#6EBC61"/>
    </g>
    <defs>
        <clipPath id="clip0">
            <rect width="56" height="56" fill="white"/>
        </clipPath>
    </defs>
</svg>
