<svg width="184" height="175" viewBox="0 0 184 175" fill="none" xmlns="http://www.w3.org/2000/svg">
    <path d="M158.125 57.5H152.375C147.62 57.5 143.75 61.3698 143.75 66.125V66.6166C140.403 67.804 138 71.001 138 74.75V78.1166C138 80.4195 138.897 82.5872 140.527 84.2174L143.606 87.2965L140.507 113.64C132.1 100.07 118.53 90.2606 102.833 86.6582L101.548 82.8C105.742 81.6414 109.184 78.6773 110.906 74.75H112.125C118.467 74.75 123.625 69.5922 123.625 63.25V48.875C126.796 48.875 129.375 46.2961 129.375 43.125V37.375C129.375 34.2039 126.796 31.625 123.625 31.625H123.125C120.376 15.065 106.211 2.875 89.1248 2.875C72.0386 2.875 57.8735 15.065 55.125 31.625H54.6248C51.4536 31.625 48.8748 34.2039 48.8748 37.375V43.125C48.8748 46.2961 51.4536 48.875 54.6248 48.875V63.25C54.6248 69.5922 59.7825 74.75 66.1248 74.75H67.3438C69.0688 78.6773 72.5101 81.6442 76.7019 82.8L75.4139 86.6611C68.9135 88.1504 62.7179 90.9046 57.241 94.6824L51.5773 77.096C51.56 77.0011 51.5629 76.9062 51.5428 76.8114C50.0995 70.7537 41.5291 67.5855 31.9841 69.6095C26.0588 70.8659 21.108 73.853 18.739 77.5934C17.3849 79.7324 16.9421 82.0094 17.4596 84.1829C17.7558 85.4306 18.3681 86.549 19.2163 87.5294L38.9158 117.035C36.0264 123.677 34.4998 130.706 34.4998 138C34.4998 150.259 41.5263 160.888 51.7498 166.135V169.625C51.7498 175.967 56.9075 181.125 63.2498 181.125H71.8748H80.4998H126.5V143.483C130.686 149.029 137.189 152.375 144.328 152.375C156.69 152.375 166.75 142.315 166.75 129.956V66.125C166.75 61.3698 162.88 57.5 158.125 57.5ZM143.75 74.75C143.75 73.1659 145.038 71.875 146.625 71.875H149.5V66.125C149.5 64.5409 150.788 63.25 152.375 63.25H158.125C159.712 63.25 161 64.5409 161 66.125V83.375H147.815L144.592 80.1521C144.049 79.6087 143.75 78.8842 143.75 78.1166V74.75ZM97.7498 169.625V175.375H90.4013C91.3903 173.676 91.9998 171.73 91.9998 169.625H97.7498ZM100.625 163.875H83.3748V150.69L86.5976 147.467C87.1353 146.933 87.8741 146.625 88.6303 146.625H91.9998C93.5868 146.625 94.8748 147.916 94.8748 149.5V152.375H100.625C102.212 152.375 103.5 153.666 103.5 155.25V161C103.5 162.584 102.212 163.875 100.625 163.875ZM95.6769 83.375L97.4019 88.55L89.1248 98.8971L80.8448 88.5471L82.5698 83.3721H95.6769V83.375ZM80.8735 97.7874C80.747 97.7845 80.6263 97.75 80.4998 97.75H63.2498C63.221 97.75 63.1951 97.7586 63.1664 97.7586C67.3121 95.2919 71.8201 93.449 76.5265 92.3536L80.8735 97.7874ZM63.2498 103.5H70.5436C69.5604 105.193 68.9998 107.157 68.9998 109.25V112.125H74.7498V109.25C74.7498 106.079 77.3286 103.5 80.4998 103.5C83.6709 103.5 86.2498 106.079 86.2498 109.25C86.2498 112.421 83.6709 115 80.4998 115H63.2498C60.0786 115 57.4998 112.421 57.4998 109.25C57.4998 106.079 60.0786 103.5 63.2498 103.5ZM57.4998 119.152C59.1989 120.141 61.1453 120.75 63.2498 120.75H80.4998C82.6043 120.75 84.5506 120.141 86.2498 119.152V141.249C84.864 141.648 83.5789 142.353 82.5324 143.402L79.3095 146.625H68.9998C64.9748 146.625 61.0389 145.665 57.4998 143.908V119.152ZM97.7498 143.103C96.2203 141.729 94.2135 140.875 91.9998 140.875V109.25C91.9998 107.893 91.7209 106.608 91.2868 105.397L97.7498 97.3216V143.103ZM112.125 69V57.5C115.296 57.5 117.875 60.0789 117.875 63.25C117.875 66.4211 115.296 69 112.125 69ZM117.875 53.3485C116.176 52.3595 114.229 51.75 112.125 51.75V48.875H117.875V53.3485ZM117.288 31.625H97.7498V9.94175C107.625 13.0007 115.201 21.1945 117.288 31.625ZM91.9998 8.76875V31.625H86.2498V8.76875C87.1956 8.67675 88.153 8.625 89.1248 8.625C90.0965 8.625 91.0539 8.67675 91.9998 8.76875ZM80.4998 9.94175V31.625H60.9613C63.0485 21.1945 70.6241 13.0007 80.4998 9.94175ZM54.6219 37.375H123.625V43.125H54.6248L54.6219 37.375ZM66.1248 48.875V51.75C64.0203 51.75 62.0739 52.3595 60.3748 53.3485V48.875H66.1248ZM60.3748 63.25C60.3748 60.0789 62.9536 57.5 66.1248 57.5V69C62.9536 69 60.3748 66.4211 60.3748 63.25ZM71.8748 69V48.875H106.375V69C106.375 73.7552 102.505 77.625 97.7498 77.625H80.4998C75.7445 77.625 71.8748 73.7552 71.8748 69ZM23.5949 80.6725C25.1071 78.2862 28.8676 76.153 33.1801 75.2359C34.8218 74.888 36.357 74.7356 37.7543 74.7356C41.8224 74.7356 44.7204 76.0236 45.6634 77.4956L45.9451 78.3696C46.0141 78.959 45.8618 79.6087 45.4046 80.3304C43.8924 82.7166 40.1319 84.8499 35.8194 85.767C29.8854 87.0234 25.4033 85.7152 23.7386 83.9586L23.1751 83.1134C23.1406 83.0271 23.0716 82.9466 23.0486 82.8604C22.8991 82.2164 23.0831 81.4832 23.5949 80.6725ZM31.3516 91.9971C33.1629 91.9971 35.069 91.8016 37.0154 91.3876C41.6355 90.4072 45.6461 88.3689 48.3199 85.7469L53.791 102.735C52.5088 104.59 51.7498 106.829 51.7498 109.25V125.908L29.0258 91.8735C29.7819 91.9482 30.5553 91.9971 31.3516 91.9971ZM40.2498 138C40.2498 132.77 41.0979 127.682 42.7683 122.814L51.7498 136.266V139.978C50.4963 138.857 49.3233 137.638 48.2998 136.275L43.6998 139.725C49.6395 147.646 59.0983 152.375 68.9998 152.375H77.6248V163.875H66.1248C51.8561 163.875 40.2498 152.266 40.2498 138ZM71.8748 175.375H63.2498C60.0786 175.375 57.4998 172.796 57.4998 169.625V168.4C60.2454 169.179 63.1319 169.625 66.1248 169.625H86.2498C86.2498 172.796 83.6709 175.375 80.4998 175.375H71.8748ZM144.328 146.625C137.974 146.625 132.261 143.094 129.418 137.411L126.5 131.572V120.75H120.75V175.375H103.5V169.096C106.838 167.906 109.25 164.743 109.25 161V155.25C109.25 151.507 106.838 148.344 103.5 147.154V92.759C119.091 96.9565 132.164 107.962 138.891 122.76L139.325 123.711L138.023 134.792L143.733 135.461L149.181 89.125H161V129.956C161 139.147 153.519 146.625 144.328 146.625Z"
          fill="#6EBC61"/>
</svg>
