<svg width="160" height="175" viewBox="0 0 160 175" fill="none" xmlns="http://www.w3.org/2000/svg">
    <path d="M158.125 57.5H152.375C147.62 57.5 143.75 61.3698 143.75 66.125V66.6166C140.403 67.804 138 71.001 138 74.75V78.1166C138 80.4195 138.897 82.5872 140.527 84.2174L143.606 87.2965L140.507 113.64C132.101 100.07 118.531 90.2606 102.833 86.6582L101.548 82.8C105.742 81.6414 109.184 78.6773 110.906 74.75H112.125C118.467 74.75 123.625 69.5922 123.625 63.25V48.875C126.796 48.875 129.375 46.2961 129.375 43.125V37.375C129.375 34.2039 126.796 31.625 123.625 31.625H123.125C120.376 15.065 106.211 2.875 89.125 2.875C72.0389 2.875 57.8738 15.065 55.1253 31.625H54.625C51.4539 31.625 48.875 34.2039 48.875 37.375V43.125C48.875 46.2961 51.4539 48.875 54.625 48.875V63.25C54.625 69.5922 59.7828 74.75 66.125 74.75H67.344C69.069 78.6773 72.5104 81.6442 76.7021 82.8L75.4141 86.6611C68.9138 88.1504 62.7181 90.9046 57.2413 94.6824L51.5775 77.096C51.5603 77.0011 51.5631 76.9062 51.543 76.8114C50.0998 70.7537 41.5294 67.5855 31.9844 69.6095C26.059 70.8659 21.1083 73.853 18.7393 77.5934C17.3851 79.7324 16.9424 82.0094 17.4599 84.1829C17.756 85.4306 18.3684 86.549 19.2165 87.5294L38.916 117.035C36.0266 123.677 34.5 130.706 34.5 138C34.5 150.259 41.5265 160.888 51.75 166.135V169.625C51.75 175.967 56.9078 181.125 63.25 181.125H71.875H80.5H126.5V143.483C130.686 149.029 137.189 152.375 144.328 152.375C156.69 152.375 166.75 142.315 166.75 129.956V66.125C166.75 61.3698 162.88 57.5 158.125 57.5ZM143.75 74.75C143.75 73.1659 145.038 71.875 146.625 71.875H149.5V66.125C149.5 64.5409 150.788 63.25 152.375 63.25H158.125C159.712 63.25 161 64.5409 161 66.125V83.375H147.815L144.592 80.1521C144.049 79.6087 143.75 78.8842 143.75 78.1166V74.75ZM97.75 169.625V175.375H90.4015C91.3905 173.676 92 171.73 92 169.625H97.75ZM100.625 163.875H83.375V150.69L86.5979 147.467C87.1355 146.933 87.8744 146.625 88.6305 146.625H92C93.587 146.625 94.875 147.916 94.875 149.5V152.375H100.625C102.212 152.375 103.5 153.666 103.5 155.25V161C103.5 162.584 102.212 163.875 100.625 163.875ZM95.6771 83.375L97.4021 88.55L89.125 98.8971L80.845 88.5471L82.57 83.3721H95.6771V83.375ZM80.8737 97.7874C80.7472 97.7845 80.6265 97.75 80.5 97.75H63.25C63.2213 97.75 63.1954 97.7586 63.1666 97.7586C67.3124 95.2919 71.8204 93.449 76.5268 92.3536L80.8737 97.7874ZM63.25 103.5H70.5439C69.5606 105.193 69 107.157 69 109.25V112.125H74.75V109.25C74.75 106.079 77.3289 103.5 80.5 103.5C83.6711 103.5 86.25 106.079 86.25 109.25C86.25 112.421 83.6711 115 80.5 115H63.25C60.0789 115 57.5 112.421 57.5 109.25C57.5 106.079 60.0789 103.5 63.25 103.5ZM57.5 119.152C59.1991 120.141 61.1455 120.75 63.25 120.75H80.5C82.6045 120.75 84.5509 120.141 86.25 119.152V141.249C84.8643 141.648 83.5791 142.353 82.5326 143.402L79.3098 146.625H69C64.975 146.625 61.0391 145.665 57.5 143.908V119.152ZM97.75 143.103C96.2205 141.729 94.2138 140.875 92 140.875V109.25C92 107.893 91.7211 106.608 91.287 105.397L97.75 97.3216V143.103ZM112.125 69V57.5C115.296 57.5 117.875 60.0789 117.875 63.25C117.875 66.4211 115.296 69 112.125 69ZM117.875 53.3485C116.176 52.3595 114.229 51.75 112.125 51.75V48.875H117.875V53.3485ZM117.289 31.625H97.75V9.94175C107.626 13.0007 115.201 21.1945 117.289 31.625ZM92 8.76875V31.625H86.25V8.76875C87.1959 8.67675 88.1533 8.625 89.125 8.625C90.0967 8.625 91.0541 8.67675 92 8.76875ZM80.5 9.94175V31.625H60.9615C63.0488 21.1945 70.6244 13.0007 80.5 9.94175ZM54.6221 37.375H123.625V43.125H54.625L54.6221 37.375ZM66.125 48.875V51.75C64.0205 51.75 62.0741 52.3595 60.375 53.3485V48.875H66.125ZM60.375 63.25C60.375 60.0789 62.9539 57.5 66.125 57.5V69C62.9539 69 60.375 66.4211 60.375 63.25ZM71.875 69V48.875H106.375V69C106.375 73.7552 102.505 77.625 97.75 77.625H80.5C75.7448 77.625 71.875 73.7552 71.875 69ZM23.5951 80.6725C25.1074 78.2862 28.8679 76.153 33.1804 75.2359C34.822 74.888 36.3573 74.7356 37.7545 74.7356C41.8226 74.7356 44.7206 76.0236 45.6636 77.4956L45.9454 78.3696C46.0144 78.959 45.862 79.6087 45.4049 80.3304C43.8926 82.7166 40.1321 84.8499 35.8196 85.767C29.8856 87.0234 25.4035 85.7152 23.7389 83.9586L23.1754 83.1134C23.1409 83.0271 23.0719 82.9466 23.0489 82.8604C22.8994 82.2164 23.0834 81.4832 23.5951 80.6725ZM31.3519 91.9971C33.1631 91.9971 35.0693 91.8016 37.0156 91.3876C41.6358 90.4072 45.6464 88.3689 48.3201 85.7469L53.7913 102.735C52.509 104.59 51.75 106.829 51.75 109.25V125.908L29.026 91.8735C29.7821 91.9482 30.5555 91.9971 31.3519 91.9971ZM40.25 138C40.25 132.77 41.0981 127.682 42.7685 122.814L51.75 136.266V139.978C50.4965 138.857 49.3235 137.638 48.3 136.275L43.7 139.725C49.6398 147.646 59.0985 152.375 69 152.375H77.625V163.875H66.125C51.8564 163.875 40.25 152.266 40.25 138ZM71.875 175.375H63.25C60.0789 175.375 57.5 172.796 57.5 169.625V168.4C60.2456 169.179 63.1321 169.625 66.125 169.625H86.25C86.25 172.796 83.6711 175.375 80.5 175.375H71.875ZM144.328 146.625C137.974 146.625 132.261 143.094 129.418 137.411L126.5 131.572V120.75H120.75V175.375H103.5V169.096C106.838 167.906 109.25 164.743 109.25 161V155.25C109.25 151.507 106.838 148.344 103.5 147.154V92.759C119.091 96.9565 132.164 107.962 138.891 122.76L139.325 123.711L138.023 134.792L143.733 135.461L149.181 89.125H161V129.956C161 139.147 153.519 146.625 144.328 146.625Z"
          fill="#6EBC61"/>
</svg>
