<svg width="56" height="56" viewBox="0 0 56 56" fill="none" xmlns="http://www.w3.org/2000/svg">
    <path d="M55.0667 5.6C55.5821 5.6 56 5.1821 56 4.66667V0.933333C56 0.4179 55.5821 0 55.0667 0H0.933333C0.4179 0 0 0.4179 0 0.933333V4.66667C0 5.1821 0.4179 5.6 0.933333 5.6H2.8V50.4H0.933333C0.4179 50.4 0 50.8179 0 51.3333V55.0667C0 55.5821 0.4179 56 0.933333 56H55.0667C55.5821 56 56 55.5821 56 55.0667V51.3333C56 50.8179 55.5821 50.4 55.0667 50.4H53.2V5.6H55.0667ZM54.1333 52.2667V54.1333H1.86667V52.2667H54.1333ZM4.66667 50.4V5.6H51.3333V50.4H4.66667ZM1.86667 3.73333V1.86667H54.1333V3.73333H1.86667Z"
          fill="#6EBC61"/>
    <path d="M26.1333 7.4668H7.46667C6.95123 7.4668 6.53333 7.8847 6.53333 8.40013V47.6001C6.53333 48.1156 6.95123 48.5335 7.46667 48.5335H26.1333C26.6488 48.5335 27.0667 48.1156 27.0667 47.6001V8.40013C27.0667 7.8847 26.6488 7.4668 26.1333 7.4668ZM15.8667 46.6668H8.4V35.4668H15.8667V46.6668ZM15.8667 33.6001H8.4V22.4001H15.8667V33.6001ZM15.8667 20.5335H8.4V9.33346H15.8667V20.5335ZM25.2 46.6668H17.7333V35.4668H25.2V46.6668ZM25.2 33.6001H17.7333V22.4001H25.2V33.6001ZM25.2 20.5335H17.7333V9.33346H25.2V20.5335Z"
          fill="#6EBC61"/>
    <path d="M48.5333 7.4668H29.8667C29.3512 7.4668 28.9333 7.8847 28.9333 8.40013V47.6001C28.9333 48.1156 29.3512 48.5335 29.8667 48.5335H48.5333C49.0488 48.5335 49.4667 48.1156 49.4667 47.6001V8.40013C49.4667 7.8847 49.0488 7.4668 48.5333 7.4668ZM38.2667 46.6668H30.8V35.4668H38.2667V46.6668ZM38.2667 33.6001H30.8V22.4001H38.2667V33.6001ZM38.2667 20.5335H30.8V9.33346H38.2667V20.5335ZM47.6 46.6668H40.1333V35.4668H47.6V46.6668ZM47.6 33.6001H40.1333V22.4001H47.6V33.6001ZM47.6 20.5335H40.1333V9.33346H47.6V20.5335Z"
          fill="#6EBC61"/>
</svg>
