<svg width="66" height="66" viewBox="0 0 66 66" fill="none" xmlns="http://www.w3.org/2000/svg">
    <path d="M33 62.3282C32.0604 62.3282 31.1545 61.9878 30.4486 61.3694C27.7823 59.0381 25.2117 56.8472 22.9438 54.9146L22.9322 54.9045C16.283 49.2382 10.5411 44.3448 6.54602 39.5244C2.08012 34.1355 0 29.0261 0 23.4443C0 18.0212 1.85957 13.018 5.23581 9.35577C8.65233 5.65022 13.3403 3.60938 18.4376 3.60938C22.2474 3.60938 25.7364 4.81384 28.8075 7.18904C30.3574 8.38797 31.7623 9.85529 33 11.5668C34.2382 9.85529 35.6426 8.38797 37.193 7.18904C40.2641 4.81384 43.7531 3.60938 47.5629 3.60938C52.6597 3.60938 57.3482 5.65022 60.7647 9.35577C64.1409 13.018 66 18.0212 66 23.4443C66 29.0261 63.9204 34.1355 59.4545 39.5239C55.4594 44.3448 49.718 49.2377 43.0698 54.9035C40.7978 56.8391 38.2232 59.0335 35.5509 61.3705C34.8455 61.9878 33.9391 62.3282 33 62.3282ZM18.4376 7.47556C14.433 7.47556 10.7541 9.07379 8.07779 11.9762C5.36169 14.9224 3.86568 18.995 3.86568 23.4443C3.86568 28.1388 5.61044 32.3373 9.52244 37.0575C13.3035 41.6201 18.9276 46.4128 25.4393 51.9623L25.4514 51.9724C27.7279 53.9125 30.3086 56.112 32.9945 58.4605C35.6965 56.1075 38.2811 53.9045 40.5622 51.9613C47.0734 46.4118 52.697 41.6201 56.4781 37.0575C60.3895 32.3373 62.1343 28.1388 62.1343 23.4443C62.1343 18.995 60.6383 14.9224 57.9222 11.9762C55.2464 9.07379 51.567 7.47556 47.5629 7.47556C44.6293 7.47556 41.9358 8.40811 39.5576 10.247C37.4382 11.8866 35.9618 13.9591 35.0962 15.4093C34.6511 16.1551 33.8676 16.6002 33 16.6002C32.1324 16.6002 31.3489 16.1551 30.9038 15.4093C30.0387 13.9591 28.5623 11.8866 26.4424 10.247C24.0642 8.40811 21.3707 7.47556 18.4376 7.47556Z"
          fill="#6EBC61"/>
</svg>
