<svg width="79" height="79" viewBox="0 0 79 79" fill="none" xmlns="http://www.w3.org/2000/svg">
    <g opacity="0.3">
        <path d="M44.7638 73.7278C60.7604 73.7278 73.7283 60.76 73.7283 44.7633C73.7283 28.7667 60.7604 15.7988 44.7638 15.7988C28.7672 15.7988 15.7993 28.7667 15.7993 44.7633C15.8174 60.7524 28.7746 73.7097 44.7638 73.7278ZM22.3822 43.4468H18.4996C19.1859 29.963 29.9634 19.1854 43.4472 18.4991V22.3817C43.4472 23.1087 44.0367 23.6982 44.7638 23.6982C45.4909 23.6982 46.0804 23.1087 46.0804 22.3817V18.4991C59.5642 19.1854 70.3418 29.963 71.028 43.4468H65.8289C65.1018 43.4468 64.5123 44.0362 64.5123 44.7633C64.5123 45.4904 65.1018 46.0799 65.8289 46.0799H71.028C70.3418 59.5635 59.5642 70.3413 46.0804 71.0275V67.145C46.0804 66.4179 45.4909 65.8284 44.7638 65.8284C44.0367 65.8284 43.4472 66.4179 43.4472 67.145V71.0275C29.9636 70.3413 19.1859 59.5637 18.4996 46.0799H22.3822C23.1092 46.0799 23.6987 45.4904 23.6987 44.7633C23.6987 44.0362 23.1092 43.4468 22.3822 43.4468Z"
              fill="#9C9C9C"/>
        <path d="M74.4081 27.6706C74.0156 26.9906 73.5997 26.3244 73.1613 25.6731L76.4119 22.4225C76.9259 21.9083 76.9259 21.075 76.4119 20.5608L68.9733 13.1222C68.4592 12.6083 67.6258 12.6083 67.1117 13.1222L63.8558 16.3676C58.5892 12.8119 52.4323 10.8019 46.0822 10.5655V2.63314H55.2981C56.0252 2.63314 56.6147 2.04364 56.6147 1.31657C56.6147 0.589493 56.0252 0 55.2981 0H34.2331C33.506 0 32.9165 0.589493 32.9165 1.31657C32.9165 2.04364 33.506 2.63314 34.2331 2.63314H43.449V10.5773C31.7072 11.0256 21.018 17.4718 15.1428 27.6479H7.90169C7.17462 27.6479 6.58513 28.2374 6.58513 28.9645C6.58513 29.6916 7.17462 30.2811 7.90169 30.2811H15.8011C15.8353 30.2811 15.8643 30.2639 15.8985 30.2613C16.373 30.2674 16.813 30.0153 17.0479 29.603C25.4244 14.294 44.6252 8.67388 59.9344 17.0502C75.2437 25.4265 80.8634 44.6277 72.4871 59.9368C64.1106 75.2458 44.9098 80.8659 29.6005 72.4896C24.3027 69.5908 19.9465 65.2346 17.0477 59.9368C16.8152 59.5229 16.3758 59.2681 15.901 59.2719C15.8668 59.2719 15.8365 59.2521 15.8009 59.2521H7.90153C7.17445 59.2521 6.58496 59.8416 6.58496 60.5687C6.58496 61.2958 7.17445 61.8853 7.90153 61.8853H15.1427C24.5908 78.2509 45.517 83.8588 61.8826 74.4106C78.2484 64.9624 83.8561 44.0362 74.4081 27.6706ZM66.0073 17.9498L68.0424 15.9147L73.6193 21.4917L71.5813 23.5297C69.9422 21.4633 68.072 19.5912 66.0073 17.9498Z"
              fill="#9C9C9C"/>
        <path d="M13.1667 44.7619C13.1667 44.0348 12.5772 43.4453 11.8501 43.4453H1.31754C0.59047 43.4453 0.000976562 44.0348 0.000976562 44.7619C0.000976562 45.4889 0.59047 46.0784 1.31754 46.0784H11.8501C12.5772 46.0784 13.1667 45.4889 13.1667 44.7619Z"
              fill="#9C9C9C"/>
        <path d="M3.95133 38.18H13.1673C13.8944 38.18 14.4839 37.5905 14.4839 36.8634C14.4839 36.1364 13.8944 35.5469 13.1673 35.5469H3.95133C3.22426 35.5469 2.63477 36.1364 2.63477 36.8634C2.63477 37.5905 3.22409 38.18 3.95133 38.18Z"
              fill="#9C9C9C"/>
        <path d="M14.4839 52.6623C14.4839 51.9352 13.8944 51.3457 13.1673 51.3457H3.95133C3.22426 51.3457 2.63477 51.9352 2.63477 52.6623C2.63477 53.3893 3.22426 53.9788 3.95133 53.9788H13.1673C13.8944 53.9788 14.4839 53.3893 14.4839 52.6623Z"
              fill="#9C9C9C"/>
        <path d="M41.2023 53.594C41.7164 54.1079 42.5498 54.1079 43.0639 53.594L61.3642 35.2937C61.8694 34.7707 61.855 33.9373 61.332 33.432C60.8218 32.9393 60.0129 32.9393 59.5026 33.432L42.1331 50.8015L34.2995 42.9679C33.7765 42.4629 32.943 42.4772 32.4379 43.0002C31.9452 43.5104 31.9452 44.3192 32.4379 44.8296L41.2023 53.594Z"
              fill="#9C9C9C"/>
    </g>
</svg>
