<svg width="66" height="66" viewBox="0 0 66 66" fill="none" xmlns="http://www.w3.org/2000/svg">
    <g clip-path="url(#clip0)">
        <path d="M43.1589 30.0341L28.5779 22.056C27.7395 21.5973 26.7485 21.6144 25.9267 22.1013C25.1045 22.5887 24.614 23.4498 24.614 24.4055V40.2247C24.614 41.1759 25.1014 42.0354 25.9182 42.5234C26.3447 42.7782 26.8175 42.9061 27.2913 42.9061C27.7254 42.9061 28.1604 42.7988 28.5608 42.5833L43.1423 34.7427C44.0078 34.2769 44.5481 33.3771 44.5522 32.3937C44.5557 31.4102 44.0219 30.5064 43.1589 30.0341ZM28.4817 38.2347V26.4116L39.3793 32.3745L28.4817 38.2347Z"
              fill="#6EBC61"/>
        <path d="M65.5146 19.7906L65.5116 19.7604C65.4557 19.2292 64.8993 14.504 62.6021 12.1006C59.9469 9.2737 56.9368 8.93028 55.4891 8.76562C55.3693 8.75203 55.2595 8.73944 55.1613 8.72635L55.046 8.71426C46.3206 8.0798 33.1435 7.99319 33.0116 7.99269L33 7.99219L32.9884 7.99269C32.8565 7.99319 19.6794 8.0798 10.8755 8.71426L10.7591 8.72635C10.6655 8.73894 10.5623 8.75052 10.45 8.76361C9.01891 8.92877 6.04097 9.27269 3.37825 12.2018C1.19037 14.5795 0.557922 19.2035 0.492966 19.7232L0.485413 19.7906C0.465775 20.0117 0 25.2742 0 30.5573V35.496C0 40.7792 0.465775 46.0417 0.485413 46.2632L0.488937 46.2965C0.54483 46.8192 1.10074 51.4578 3.38731 53.8622C5.88387 56.5944 9.04056 56.9559 10.7385 57.1503C11.0069 57.181 11.238 57.2072 11.3956 57.2349L11.5482 57.256C16.5861 57.7354 32.3817 57.9716 33.0514 57.9811L33.0715 57.9816L33.0916 57.9811C33.2236 57.9806 46.4002 57.894 55.1255 57.2596L55.2409 57.2475C55.3511 57.2329 55.475 57.2198 55.611 57.2057C57.034 57.0546 59.9958 56.7409 62.6217 53.8516C64.8096 51.4734 65.4426 46.8494 65.507 46.3302L65.5146 46.2627C65.5342 46.0412 66.0005 40.7792 66.0005 35.496V30.5573C66 25.2742 65.5342 20.0122 65.5146 19.7906ZM62.1323 35.496C62.1323 40.3859 61.7053 45.4218 61.665 45.8841C61.5009 47.1575 60.8337 50.0831 59.7677 51.2417C58.1241 53.05 56.4358 53.2292 55.2031 53.3596C55.054 53.3752 54.9161 53.3904 54.7912 53.406C46.3519 54.0163 33.6722 54.1099 33.0881 54.1134C32.433 54.1039 16.8686 53.8657 11.9843 53.412C11.734 53.3712 11.4636 53.34 11.1786 53.3078C9.73293 53.1421 7.75401 52.9155 6.23232 51.2417L6.19656 51.2035C5.1492 50.1123 4.50114 47.3766 4.33649 45.8992C4.30577 45.5497 3.86769 40.4544 3.86769 35.496V30.5573C3.86769 25.673 4.29369 20.6426 4.33498 20.1708C4.53085 18.6708 5.21063 15.9224 6.23232 14.8116C7.92622 12.9485 9.71228 12.7421 10.8936 12.6056C11.0064 12.5925 11.1116 12.5804 11.2088 12.5679C19.771 11.9545 32.5418 11.8634 33 11.8599C33.4582 11.8629 46.2245 11.9545 54.7106 12.5679C54.8149 12.5809 54.9287 12.594 55.051 12.6081C56.2661 12.7466 58.1025 12.9561 59.7878 14.7537L59.8034 14.7703C60.8508 15.8615 61.4989 18.6451 61.6635 20.1522C61.6927 20.482 62.1323 25.5884 62.1323 30.5573V35.496Z"
              fill="#6EBC61"/>
    </g>
    <defs>
        <clipPath id="clip0">
            <rect width="66.0003" height="66" fill="white"/>
        </clipPath>
    </defs>
</svg>
