<svg width="40" height="40" viewBox="0 0 40 40" fill="none" xmlns="http://www.w3.org/2000/svg">
    <g clip-path="url(#clip0)">
        <path d="M3.99983 40H35.9998C36.3545 40.0015 36.6949 39.8604 36.9445 39.6084C37.1941 39.3564 37.332 39.0147 37.3272 38.66V35.9674C37.1058 31.476 34.6605 30.722 34.5618 30.694L25.9998 28.1687V24.4353C26.8752 23.6272 27.4163 22.5205 27.5165 21.3333H29.3332C30.4377 21.3333 31.3332 20.4379 31.3332 19.3333V15.3333C31.3297 14.4888 30.7961 13.7375 29.9998 13.456V9.33334C29.9998 4.01267 25.7012 0 19.9998 0C14.2985 0 9.99983 4.01267 9.99983 9.33334V13.456C9.2036 13.7375 8.67 14.4888 8.6665 15.3333V19.3333C8.67 20.1779 9.2036 20.9292 9.99983 21.2107V22C9.99983 23.4728 11.1937 24.6667 12.6665 24.6667H13.9998V28.1687L5.44316 30.6927C5.33916 30.722 2.89516 31.476 2.67316 36V38.6487C2.66543 39.0051 2.80192 39.3496 3.05168 39.604C3.30144 39.8584 3.64332 40.0012 3.99983 40ZM11.3332 10.7333C12.1794 6.6669 15.8504 3.81478 19.9998 4C24.145 3.82798 27.8086 6.67425 28.6665 10.7333V13.3333H27.8425C27.1758 10.5233 25.8878 9.66067 25.7405 9.57067C23.8852 8.45734 18.0785 8.64134 15.9032 8.78067C15.2717 8.80438 14.6713 9.06056 14.2172 9.50001C13.2398 10.5913 12.5492 11.9087 12.2078 13.3333H11.3332V10.7333ZM15.3332 25.8533C16.4238 27.2667 16.9372 28.6667 18.9478 28.6667C21.9698 28.6667 22.5125 28.944 24.0845 26.658C24.2612 26.4014 24.4532 26.1287 24.6672 25.85V28.5614C23.5952 31.398 16.3825 31.374 15.3338 28.5614L15.3332 25.8533ZM24.8132 23.728C22.7332 25.5954 22.6725 27.3334 21.0512 27.3334C18.1718 27.3334 18.1912 27.6134 17.0138 25.9027C16.7598 25.5333 16.4598 25.11 16.0878 24.6667H17.5185C17.7548 25.0779 18.1923 25.3319 18.6665 25.3333H21.3332C22.0695 25.3333 22.6665 24.7364 22.6665 24V22.6667C22.6665 21.9303 22.0695 21.3333 21.3332 21.3333H18.6665C17.9301 21.3333 17.3332 21.9303 17.3332 22.6667V23.3333H14.7998C13.7332 22.174 13.7598 21.1493 13.8065 19.8867C13.8908 18.9119 13.8263 17.93 13.6152 16.9747C13.3572 15.6287 13.1952 14.708 13.5152 13.5993C13.8014 12.4296 14.3666 11.3465 15.1625 10.4427C15.387 10.2351 15.6795 10.1166 15.9852 10.1093C18.1532 9.97001 23.0678 9.80534 25.0585 10.716C25.8505 11.3307 26.8212 13.462 26.6618 15.158C26.5085 16.7667 26.1705 17.558 26.1705 18.8247C26.1692 20.8967 26.5825 22.1333 24.8125 23.7247L24.8132 23.728ZM18.6665 24V22.6667H21.3332V24H18.6665ZM29.9998 19.3333C29.9998 19.7015 29.7014 20 29.3332 20H27.5332C27.4312 17.142 27.7445 17.8667 27.9878 15.2873C28.0032 15.0808 28.0072 14.8736 27.9998 14.6667H29.3332C29.7014 14.6667 29.9998 14.9652 29.9998 15.3333V19.3333ZM28.2158 6.656C26.7865 4.66667 24.2852 2.66667 19.9998 2.66667C15.7145 2.66667 13.2132 4.66667 11.7838 6.656C14.2665 -0.463333 25.7332 -0.453333 28.2158 6.656ZM9.99983 15.3333C9.99983 14.9652 10.2983 14.6667 10.6665 14.6667H12.0085C12.018 15.5273 12.117 16.3846 12.3038 17.2247C12.5034 18.1355 12.5583 19.0721 12.4665 20H10.6665C10.2983 20 9.99983 19.7015 9.99983 19.3333V15.3333ZM11.3332 22V21.3333H12.4832C12.5389 22.0408 12.7587 22.7256 13.1252 23.3333H12.6665C11.9301 23.3333 11.3332 22.7364 11.3332 22ZM5.8165 31.9727L14.2992 29.47C14.8272 30.4 16.2738 32 19.9998 32C23.7258 32 25.1725 30.4 25.7005 29.4667L34.1745 31.9667C34.2412 31.9894 35.8265 32.5667 35.9965 35.9967V38.6667H4.0065V36.0327C4.17716 32.5667 5.7585 31.9927 5.8165 31.9727Z"
              fill="#6EBC61"/>
    </g>
    <defs>
        <clipPath id="clip0">
            <rect width="40" height="40" fill="white"/>
        </clipPath>
    </defs>
</svg>
