<svg width="112" height="112" viewBox="0 0 112 112" fill="none" xmlns="http://www.w3.org/2000/svg">
    <g opacity="0.2" clip-path="url(#clip0)">
        <path d="M110.359 48.5625C111.266 48.5625 112 47.8276 112 46.9219V36.2031C112 35.2974 111.266 34.5625 110.359 34.5625H104.144V11.4844C104.144 10.5786 103.409 9.84375 102.503 9.84375H98.1069V1.64062C98.1069 0.734863 97.3729 0 96.4662 0H33.4688C31.3522 0 31.3522 3.28125 33.4688 3.28125H94.8256V9.625H17.1745V3.28125H23.6251C25.7416 3.28125 25.7416 0 23.6251 0H15.5339C14.6273 0 13.8932 0.734863 13.8932 1.64062V9.84375H9.49689C8.59113 9.84375 7.85626 10.5786 7.85626 11.4844V34.5625H1.64069C0.73407 34.5625 6.10352e-05 35.2974 6.10352e-05 36.2031V46.9219C6.10352e-05 47.8276 0.73407 48.5625 1.64069 48.5625H7.85626V68.25H1.64069C0.73407 68.25 6.10352e-05 68.9849 6.10352e-05 69.8906V80.6094C6.10352e-05 81.5151 0.73407 82.25 1.64069 82.25H7.85626V96.6251C7.8349 96.6251 7.81439 96.6226 7.79218 96.6226C3.55304 96.6226 0.104309 100.072 0.104309 104.311C0.104309 108.551 3.55304 112 7.79218 112H104.311C108.55 112 112 108.551 112 104.311C112 100.072 108.55 96.6226 104.311 96.6226C104.255 96.6226 104.199 96.6277 104.144 96.6294V82.25H110.359C111.266 82.25 112 81.5151 112 80.6094V69.8906C112 68.9849 111.266 68.25 110.359 68.25H104.144V48.5625H110.359ZM108.719 45.2812H82.0313V37.8438H108.719V45.2812ZM100.844 34.5625H82.0313V27.125H100.844V34.5625ZM29.9688 34.5625H11.1563V27.125H29.9688V34.5625ZM3.28131 37.8438H29.9688V45.2812H3.28131V37.8438ZM29.9688 68.25H11.1563V60.8125H29.9688V68.25ZM3.28131 71.5312H29.9688V78.9688H3.28131V71.5312ZM3.38556 104.311C3.38556 101.881 5.36285 99.9038 7.79218 99.9038C8.48517 99.9038 9.14911 100.061 9.76605 100.37C10.3018 100.64 10.9418 100.595 11.4357 100.253C11.9288 99.9124 12.1962 99.3287 12.1339 98.7323C12.1168 98.5759 12.1082 98.4178 12.1082 98.2632C12.1082 95.833 14.0855 93.8557 16.5157 93.8557C18.9459 93.8557 20.9232 95.833 20.9232 98.2632C20.9232 98.4178 20.9146 98.5751 20.8975 98.7323C20.8351 99.3287 21.1026 99.9124 21.5956 100.253C22.0887 100.595 22.7296 100.64 23.2653 100.37C23.8823 100.061 24.5462 99.9038 25.2392 99.9038C27.6685 99.9038 29.6458 101.881 29.6458 104.311C29.6458 106.741 27.6685 108.719 25.2392 108.719H7.79218C5.36285 108.719 3.38556 106.741 3.38556 104.311ZM42.5469 108.719V85.0938H54.3594V108.719H42.5469ZM108.719 104.311C108.719 106.741 106.742 108.719 104.311 108.719H86.8652C84.435 108.719 82.4586 106.741 82.4586 104.311C82.4586 101.881 84.435 99.9038 86.8652 99.9038C87.5582 99.9038 88.2221 100.061 88.8382 100.37C89.3748 100.64 90.0148 100.595 90.5087 100.253C91.0018 99.9124 91.2692 99.3287 91.206 98.7323C91.1898 98.5742 91.1812 98.4161 91.1812 98.2632C91.1812 95.833 93.1585 93.8557 95.5887 93.8557C98.0189 93.8557 99.9953 95.833 99.9953 98.2632C99.9953 98.4178 99.9876 98.5751 99.9705 98.7323C99.9081 99.3287 100.176 99.9124 100.669 100.253C101.162 100.595 101.803 100.64 102.338 100.37C102.955 100.061 103.619 99.9038 104.311 99.9038C106.742 99.9038 108.719 101.881 108.719 104.311ZM108.719 78.9688H82.0313V71.5312H85.7501C87.8666 71.5312 87.8666 68.25 85.7501 68.25H82.0313V60.8125H100.844V68.25H96.0313C93.9147 68.25 93.9147 71.5312 96.0313 71.5312H108.719V78.9688ZM100.863 57.5312H80.3907C79.4841 57.5312 78.7501 58.2661 78.7501 59.1719V80.6094C78.7501 81.5151 79.4841 82.25 80.3907 82.25H100.863V92.6757C99.4843 91.3751 97.6284 90.5745 95.5887 90.5745C91.8793 90.5745 88.775 93.214 88.0563 96.714C87.6658 96.6533 87.2685 96.6226 86.8652 96.6226C82.626 96.6226 79.1773 100.072 79.1773 104.311C79.1773 105.95 79.6943 107.469 80.571 108.719H72.7344V103.906C72.7344 101.79 69.4532 101.79 69.4532 103.906V108.719H57.6407V85.0938H69.4532V93.8438C69.4532 95.9603 72.7344 95.9603 72.7344 93.8438V83.4531C72.7344 82.5474 72.0004 81.8125 71.0938 81.8125H40.9063C39.9997 81.8125 39.2657 82.5474 39.2657 83.4531V108.719H31.5334C32.4101 107.469 32.9271 105.95 32.9271 104.311C32.9271 100.072 29.4783 96.6226 25.2392 96.6226C24.8359 96.6226 24.4385 96.6533 24.048 96.714C23.3286 93.214 20.225 90.5745 16.5157 90.5745C14.4247 90.5745 12.5252 91.4144 11.1375 92.7739V82.25H31.6094C32.5161 82.25 33.2501 81.5151 33.2501 80.6094V59.1719C33.2501 58.2661 32.5161 57.5312 31.6094 57.5312H11.1375V48.5625H31.6094C32.5161 48.5625 33.2501 47.8276 33.2501 46.9219V25.4844C33.2501 24.5786 32.5161 23.8438 31.6094 23.8438H11.1375V13.125H100.863V23.8438H80.3907C79.4841 23.8438 78.7501 24.5786 78.7501 25.4844V46.9219C78.7501 47.8276 79.4841 48.5625 80.3907 48.5625H100.863V57.5312Z"
              fill="white"/>
        <path d="M51.0782 23.8438H40.5782C39.6716 23.8438 38.9376 24.5786 38.9376 25.4844V35.9844C38.9376 36.8901 39.6716 37.625 40.5782 37.625H51.0782C51.9848 37.625 52.7188 36.8901 52.7188 35.9844V25.4844C52.7188 24.5786 51.9848 23.8438 51.0782 23.8438ZM49.4376 34.3438H42.2188V27.125H49.4376V34.3438Z"
              fill="white"/>
        <path d="M70.7657 23.8438H60.2657C59.3591 23.8438 58.6251 24.5786 58.6251 25.4844V35.9844C58.6251 36.8901 59.3591 37.625 60.2657 37.625H70.7657C71.6723 37.625 72.4063 36.8901 72.4063 35.9844V25.4844C72.4063 24.5786 71.6723 23.8438 70.7657 23.8438ZM69.1251 34.3438H61.9063V27.125H69.1251V34.3438Z"
              fill="white"/>
        <path d="M51.0782 57.5312H40.5782C39.6716 57.5312 38.9376 58.2661 38.9376 59.1719V69.6719C38.9376 70.5776 39.6716 71.3125 40.5782 71.3125H51.0782C51.9848 71.3125 52.7188 70.5776 52.7188 69.6719V59.1719C52.7188 58.2661 51.9848 57.5312 51.0782 57.5312ZM49.4376 68.0312H42.2188V60.8125H49.4376V68.0312Z"
              fill="white"/>
        <path d="M70.7657 57.5312H60.2657C59.3591 57.5312 58.6251 58.2661 58.6251 59.1719V69.6719C58.6251 70.5776 59.3591 71.3125 60.2657 71.3125H70.7657C71.6723 71.3125 72.4063 70.5776 72.4063 69.6719V59.1719C72.4063 58.2661 71.6723 57.5312 70.7657 57.5312ZM69.1251 68.0312H61.9063V60.8125H69.1251V68.0312Z"
              fill="white"/>
    </g>
    <defs>
        <clipPath id="clip0">
            <rect width="112" height="112" fill="white"/>
        </clipPath>
    </defs>
</svg>
