<svg width="40" height="40" viewBox="0 0 40 40" fill="none" xmlns="http://www.w3.org/2000/svg">
    <g clip-path="url(#clip0)">
        <path d="M20.6667 18.6667C20.8533 18.6667 19.78 19.04 37.1467 12.5867C37.3132 12.5252 37.4484 12.3999 37.5222 12.2385C37.5961 12.077 37.6025 11.8928 37.54 11.7267C34.9008 4.6897 28.1822 0.0203844 20.6667 0C20.2985 0 20 0.298477 20 0.666667V18C20 18.3682 20.2985 18.6667 20.6667 18.6667ZM21.3333 1.33333C27.8056 1.61349 33.5357 5.60146 36.0467 11.5733L21.3333 17.04V1.33333Z"
              fill="#6EBC61"/>
        <path d="M35.9998 21.9999C36.0068 19.8519 35.6274 17.7202 34.8798 15.7066C34.8147 15.5387 34.6844 15.4043 34.5187 15.334C34.3529 15.2637 34.1658 15.2634 33.9998 15.3332L18.6665 21.0399V4.66655C18.6665 4.29836 18.368 3.99988 17.9998 3.99988C10.7109 3.99558 4.13886 8.3875 1.35437 15.1236C-1.43011 21.8597 0.122669 29.6102 5.2872 34.7537C10.4517 39.8973 18.2084 41.4185 24.9331 38.6066C29.4989 41.2309 35.3176 39.8645 38.238 35.4822C41.1584 31.0998 40.1795 25.2036 35.9998 21.9999ZM17.3331 5.33322V21.1599L1.95314 17.5399C3.86017 10.5464 10.0893 5.60251 17.3331 5.33322ZM1.6398 18.8399L17.1331 22.4799L11.9998 37.5199C4.48578 34.6153 0.124791 26.752 1.6398 18.8399ZM13.2331 37.9532L18.5265 22.5132L33.8598 16.8199C34.3224 18.2192 34.5938 19.6746 34.6665 21.1466C30.1337 18.7505 24.5231 20.1709 21.6763 24.435C18.8296 28.6992 19.669 34.4255 23.6198 37.6932C20.2755 38.8938 16.6333 38.985 13.2331 37.9532ZM29.9998 38.6666C25.2133 38.6666 21.3331 34.7864 21.3331 29.9999C21.3331 25.2134 25.2133 21.3332 29.9998 21.3332C34.7863 21.3332 38.6665 25.2134 38.6665 29.9999C38.6665 32.2984 37.7534 34.5028 36.1281 36.1282C34.5027 37.7535 32.2983 38.6666 29.9998 38.6666Z"
              fill="#6EBC61"/>
        <path d="M34.4733 25.5267C34.3481 25.4005 34.1777 25.3295 33.9999 25.3295C33.8222 25.3295 33.6518 25.4005 33.5266 25.5267L25.5266 33.5267C25.3343 33.7174 25.2765 34.0055 25.3803 34.2557C25.4842 34.5058 25.7291 34.6682 25.9999 34.6667C26.1771 34.6677 26.3474 34.5981 26.4732 34.4733L34.4733 26.4733C34.5995 26.3482 34.6705 26.1778 34.6705 26C34.6705 25.8222 34.5995 25.6518 34.4733 25.5267Z"
              fill="#6EBC61"/>
        <path d="M28.6666 26.6665C28.6666 25.5619 27.7712 24.6665 26.6666 24.6665C25.5621 24.6665 24.6666 25.5619 24.6666 26.6665C24.6666 27.7711 25.5621 28.6665 26.6666 28.6665C27.7712 28.6665 28.6666 27.7711 28.6666 26.6665ZM26 26.6665C26 26.2983 26.2984 25.9998 26.6666 25.9998C27.0348 25.9998 27.3333 26.2983 27.3333 26.6665C27.3333 27.0347 27.0348 27.3332 26.6666 27.3332C26.2984 27.3332 26 27.0347 26 26.6665Z"
              fill="#6EBC61"/>
        <path d="M33.333 31.3331C32.2284 31.3331 31.333 32.2286 31.333 33.3331C31.333 34.4377 32.2284 35.3331 33.333 35.3331C34.4376 35.3331 35.333 34.4377 35.333 33.3331C35.333 32.2286 34.4376 31.3331 33.333 31.3331ZM33.333 33.9998C32.9648 33.9998 32.6663 33.7013 32.6663 33.3331C32.6663 32.9649 32.9648 32.6665 33.333 32.6665C33.7012 32.6665 33.9997 32.9649 33.9997 33.3331C33.9997 33.7013 33.7012 33.9998 33.333 33.9998Z"
              fill="#6EBC61"/>
    </g>
    <defs>
        <clipPath id="clip0">
            <rect width="40" height="40" fill="white"/>
        </clipPath>
    </defs>
</svg>
