<svg width="134" height="134" viewBox="0 0 134 134" fill="none" xmlns="http://www.w3.org/2000/svg">
    <g opacity="0.2">
        <path d="M14.6561 53.58L11.9028 55.4497C11.5531 55.6863 11.1449 55.8119 10.7261 55.8119C10.5963 55.8119 10.4623 55.7994 10.3325 55.7743C9.7881 55.6696 9.30653 55.3534 8.99457 54.8928L4.292 47.9604C3.64085 47.0035 3.8921 45.7012 4.84895 45.0522L65.8231 3.67758C66.535 3.19602 67.4625 3.19602 68.1744 3.67758L129.153 45.0543C130.11 45.7033 130.359 47.0056 129.71 47.9625L125.007 54.8949C124.697 55.3555 124.214 55.6717 123.669 55.7764C123.121 55.881 122.557 55.7617 122.099 55.4518L119.344 53.58V74.528C120.571 75.064 121.573 76.0543 122.099 77.3566C125.619 86.0583 129.812 97.4943 129.812 102.595C129.812 110.111 125.436 115.949 119.344 117.048V125.626H129.812V129.813H4.18732V125.626H14.6561V53.58ZM122.717 50.81L125.068 47.3406L66.9998 7.93836L8.93175 47.3406L11.283 50.8079L65.8231 13.7988C66.1791 13.558 66.5894 13.4365 66.9998 13.4365C67.4102 13.4365 67.8206 13.558 68.1765 13.7988L122.717 50.81ZM125.625 102.595C125.625 99.1924 122.926 90.5661 118.219 78.9269C117.978 78.3344 117.461 78.2716 117.25 78.2716C117.038 78.2716 116.521 78.3344 116.28 78.9269C111.574 90.5661 108.875 99.1924 108.875 102.595C108.875 108.66 112.399 113.063 117.25 113.063C122.101 113.063 125.625 108.66 125.625 102.595ZM115.156 117.048C109.063 115.949 104.687 110.111 104.687 102.595C104.687 97.4943 108.881 86.0583 112.401 77.3566C112.926 76.0543 113.929 75.064 115.156 74.528V50.7388L66.9998 18.0616L18.8436 50.7388V91.4936L19.1953 90.966C19.9721 89.7998 21.9025 89.7998 22.6793 90.966L26.8668 97.2473C27.095 97.5885 27.2186 97.9947 27.2186 98.4072V102.595H31.4061V98.4072C31.4061 97.9947 31.5296 97.5885 31.7578 97.2452L35.9453 90.9639C36.7221 89.7977 38.6525 89.7977 39.4293 90.9639L43.6168 97.2452C43.845 97.5885 43.9686 97.9947 43.9686 98.4072V102.595H48.1561V98.4072C48.1561 97.9947 48.2796 97.5885 48.5078 97.2452L52.6953 90.9639C53.4721 89.7977 55.4025 89.7977 56.1793 90.9639L60.3668 97.2452C60.595 97.5885 60.7186 97.9947 60.7186 98.4072V125.626H73.2811V85.8447C73.2811 84.6869 74.217 83.7509 75.3748 83.7509H98.4061C99.5639 83.7509 100.5 84.6869 100.5 85.8447V125.626H115.156V117.048ZM52.3436 125.626H56.5311V99.0416L54.4373 95.901L52.3436 99.0416V125.626ZM48.1561 106.782H43.9686V110.97H48.1561V106.782ZM48.1561 115.157H43.9686V125.626H48.1561V115.157ZM35.5936 125.626H39.7811V99.0416L37.6873 95.901L35.5936 99.0416V125.626ZM31.4061 106.782H27.2186V110.97H31.4061V106.782ZM31.4061 115.157H27.2186V125.626H31.4061V115.157ZM77.4686 125.626H96.3123V87.9384H77.4686V125.626ZM23.0311 125.626V99.0416L20.9373 95.901L18.8436 99.0416V125.626H23.0311Z"
              fill="white"/>
        <path d="M73.2812 69.0938H60.7188C56.0999 69.0938 52.3438 65.3376 52.3438 60.7188V48.1562C52.3438 43.5374 56.0999 39.7812 60.7188 39.7812H73.2812C77.9001 39.7812 81.6562 43.5374 81.6562 48.1562V60.7188C81.6562 65.3376 77.9001 69.0938 73.2812 69.0938ZM77.4688 60.7188V56.5312H69.0938V64.9062H73.2812C75.5907 64.9062 77.4688 63.0282 77.4688 60.7188ZM60.7188 64.9062H64.9062V56.5312H56.5312V60.7188C56.5312 63.0282 58.4093 64.9062 60.7188 64.9062ZM56.5312 48.1562V52.3438H64.9062V43.9688H60.7188C58.4093 43.9688 56.5312 45.8468 56.5312 48.1562ZM73.2812 43.9688H69.0938V52.3438H77.4688V48.1562C77.4688 45.8468 75.5907 43.9688 73.2812 43.9688Z"
              fill="white"/>
        <path d="M85.8438 104.688H81.6562V108.875H85.8438V104.688Z" fill="white"/>
    </g>
</svg>
