<svg width="56" height="56" viewBox="0 0 56 56" fill="none" xmlns="http://www.w3.org/2000/svg">
    <g clip-path="url(#clip0)">
        <path d="M1.86664 36.4003H20.5334C21.564 36.399 22.3988 35.5641 22.4001 34.5336V21.4667C22.3988 20.4362 21.564 19.6014 20.5334 19.6001H1.86664C0.836121 19.6014 0.00128174 20.4362 0 21.4667V34.5336C0.00128174 35.5641 0.836121 36.399 1.86664 36.4003ZM1.86664 21.4667H20.5334L20.5343 34.5336H1.86664V21.4667Z"
              fill="#6EBC61"/>
        <path d="M1.86664 55.9999H9.33319C10.3637 55.9986 11.199 55.1638 11.1998 54.1332V41.0663C11.199 40.0363 10.3637 39.201 9.33319 39.1997H1.86664C0.836121 39.201 0.00128174 40.0363 0 41.0663V54.1332C0.00128174 55.1638 0.836121 55.9986 1.86664 55.9999ZM1.86664 41.0663H9.33319L9.33447 54.1332H1.86664V41.0663Z"
              fill="#6EBC61"/>
        <path d="M54.1334 0H1.86664C0.836121 0.00128174 0.00128174 0.836121 0 1.86664V14.9335C0.00128174 15.9636 0.836121 16.7989 1.86664 16.8002H27.5659C28.0923 17.6948 28.5439 18.6313 28.9169 19.5999H27.0665C26.0364 19.6012 25.2011 20.436 25.1998 21.4666V34.5334C25.2011 35.564 26.0364 36.3988 27.0665 36.4001H28.863C28.8502 36.8218 28.8254 37.2456 28.8301 37.6622C28.8365 38.1561 28.8605 38.6735 28.8925 39.1998H15.8666C14.8361 39.2011 14.0013 40.0364 14 41.0665V54.1334C14.0013 55.1639 14.8361 55.9987 15.8666 56H54.1334C55.1639 55.9987 55.9987 55.1639 56 54.1334V1.86664C55.9987 0.836121 55.1639 0.00128174 54.1334 0V0ZM1.86664 1.86664H17.4932C17.4333 3.17444 17.4756 4.4848 17.6205 5.78577C18.137 8.46545 20.2288 9.81854 22.0745 11.0127L22.3745 11.2067C23.8972 12.212 25.2344 13.4728 26.3278 14.9335H1.86664V1.86664ZM27.0665 21.4666H29.5154C29.9418 23.0239 30.173 24.6282 30.2029 26.2423C30.176 27.6843 29.9773 29.1177 29.6116 30.5126C29.4727 31.142 29.3334 31.7764 29.2185 32.4301C29.0972 33.1137 29.0177 33.8212 28.9579 34.5334H27.0665V21.4666ZM15.8666 41.0665H29.0784C29.5757 45.8243 31.3893 50.3492 34.316 54.1334H15.8666V41.0665ZM54.1334 54.1334H36.7919C33.2855 50.2373 31.1843 45.2787 30.8245 40.0492C30.7489 39.2122 30.7062 38.4009 30.6972 37.6382C30.6878 36.9418 30.707 36.2309 30.7532 35.5114C30.7963 34.5869 30.898 33.6661 31.0565 32.7544C31.168 32.1268 31.3018 31.5175 31.4351 30.9134C31.8337 29.3774 32.0469 27.7996 32.0704 26.2128C32.0366 24.1915 31.717 22.1852 31.121 20.2532C30.5895 18.5399 29.8427 16.9014 28.8976 15.3766C27.5099 13.0814 25.6301 11.1229 23.3934 9.64252L23.088 9.4447C21.3345 8.30994 19.8187 7.33026 19.4568 5.45807C19.347 4.26434 19.3115 3.06464 19.3504 1.86664H54.1334V54.1334Z"
              fill="#6EBC61"/>
        <path d="M21.3281 5.25429C21.608 6.22414 22.5641 6.88295 24.1018 7.87672L24.4171 8.08137C26.8785 9.70662 28.9485 11.8587 30.4763 14.382C31.5107 16.0504 32.328 17.8435 32.9095 19.7187C33.0642 20.2105 33.588 20.4835 34.0797 20.3292C34.5715 20.1746 34.8449 19.6503 34.6903 19.1586C34.0622 17.1343 33.1791 15.198 32.0627 13.3963C30.3905 10.6406 28.1269 8.29115 25.4357 6.51723L25.1161 6.31001C24.3885 5.90327 23.7246 5.39229 23.1452 4.79329L23.1307 4.60487C23.0965 4.09004 22.6517 3.70082 22.1373 3.735C21.6229 3.76961 21.2337 4.21437 21.2679 4.72877C21.2773 4.8625 21.2863 4.98384 21.2957 5.08595C21.3016 5.14278 21.3123 5.19917 21.3281 5.25429Z"
              fill="#6EBC61"/>
        <path d="M33.9353 26.1799C33.9139 27.9321 33.6824 29.6752 33.2453 31.3723C33.1214 31.9332 32.9975 32.4976 32.8954 33.0778C32.7476 33.9268 32.654 34.7838 32.6147 35.6447C32.5728 36.3005 32.5553 36.9645 32.5634 37.616C32.572 38.3304 32.6121 39.0866 32.683 39.8698C32.9911 44.2631 34.6091 48.463 37.3276 51.9279C37.5365 52.1962 37.8749 52.3295 38.2107 52.2766C38.5466 52.2231 38.8268 51.9916 38.9422 51.672C39.058 51.352 38.9905 50.9948 38.7662 50.7393C36.3027 47.5546 34.8329 43.7137 34.5416 39.698C34.4762 38.9674 34.439 38.2595 34.4305 37.593C34.4219 36.988 34.4382 36.374 34.4788 35.7498C34.5138 34.9628 34.5988 34.1793 34.733 33.403C34.8312 32.8497 34.9509 32.3096 35.0812 31.7153C35.546 29.8961 35.7878 28.0269 35.8019 26.1492C35.7938 25.6399 35.3781 25.231 34.8688 25.2314H34.8534C34.6056 25.2353 34.3698 25.3374 34.1981 25.5156C34.0259 25.6933 33.9314 25.9326 33.9353 26.1799Z"
              fill="#6EBC61"/>
    </g>
    <defs>
        <clipPath id="clip0">
            <rect width="56" height="56" fill="white"/>
        </clipPath>
    </defs>
</svg>
