<svg width="107" height="107" viewBox="0 0 107 107" fill="none" xmlns="http://www.w3.org/2000/svg">
    <g opacity="0.2">
        <path d="M105.433 10.3849H56.5854V1.56738C56.5854 0.701769 55.8839 0 55.0181 0H45.2391C44.3734 0 43.6717 0.701769 43.6717 1.56738V10.3849H24.4907C23.6251 10.3849 22.9233 11.0866 22.9233 11.9522V25.428C21.8888 25.9793 20.9085 26.704 20.083 27.5383V22.9316C20.083 20.0901 17.256 17.7568 13.0513 16.9821V13.5796C13.0513 12.714 12.3495 12.0122 11.4839 12.0122C8.70901 12.0122 5.88772 13.0791 3.74333 14.9392C1.32956 17.0333 0 19.9398 0 23.1233V29.6902C0 31.7167 3.13477 31.7167 3.13477 29.6902V23.1233C3.13477 19.6924 5.68793 16.0182 9.91652 15.2803V75.406C7.45677 75.7134 4.94478 76.6973 3.14104 78.4308C3.13769 76.2964 3.13477 38.0191 3.13477 38.0191C3.13477 35.9925 0 35.9925 0 38.0191V86.7051C0 86.7931 0.00898633 86.8788 0.0229883 86.9628C0.17701 91.5602 4.43047 94.9959 10.0415 94.9959C12.7581 94.9959 15.1886 94.2227 16.9789 92.9485L16.9798 98.7108C16.9806 104.007 22.2777 107 27.0227 107C32.0592 106.999 37.0628 104.163 37.0628 98.7075L37.0592 76.5472H81.6962L49.1715 104.239C48.0842 105.165 48.7596 107 50.1876 107H97.3905C98.2563 107 98.9579 106.298 98.9579 105.433V97.8294C98.9579 95.8028 95.8231 95.8028 95.8231 97.8294V103.865H54.4465L95.8231 68.6369V89.1824C95.8231 91.2089 98.9579 91.2089 98.9579 89.1824V76.5476H105.433C106.298 76.5476 107 75.8459 107 74.9802V53.1029V11.9522C107 11.0866 106.298 10.3849 105.433 10.3849ZM103.865 13.5196V51.5355H67.1567V13.5196H103.865ZM53.4507 3.13477V43.2483H46.8064V39.2427H47.9446C49.9711 39.2427 49.9711 36.1079 47.9446 36.1079H46.8064V32.0007H49.4075C51.434 32.0007 51.434 28.866 49.4075 28.866H46.8064V24.7588H47.9446C48.8102 24.7588 49.512 24.057 49.512 23.1914C49.512 22.3258 48.8102 21.624 47.9446 21.624H46.8064V17.5169H49.4075C51.434 17.5169 51.434 14.3821 49.4075 14.3821H46.8064V10.2751H47.9446C49.9711 10.2751 49.9711 7.14037 47.9446 7.14037H46.8064V3.13477H53.4507ZM24.7563 27.9579C25.433 27.6378 26.1427 27.4133 26.8852 27.2844L26.8948 87.41C25.1488 87.6286 22.3262 88.3145 20.1198 90.4359C20.1162 88.3308 20.1129 86.7013 20.1129 86.657L20.1045 35.1284C20.1041 32.3199 21.8157 29.3489 24.7563 27.9579ZM33.9274 94.1339C33.8745 94.1036 33.8212 94.0737 33.7671 94.044C31.9694 93.0572 29.6223 92.5067 27.1452 92.4892L27.145 90.5406C27.8961 90.4371 28.4006 90.4449 28.4127 90.4449C29.3941 90.3793 29.933 89.857 30.0296 88.8781L30.0206 32.2014C32.0983 32.7155 33.9177 33.7687 33.918 34.9347L33.9274 94.1339ZM16.9482 22.9316V74.6524V82.1097C15.2017 81.1068 12.8417 80.5033 10.1665 80.4853V78.5363C10.918 78.4329 11.4225 78.4408 11.4342 78.441C12.4156 78.3754 12.9545 77.8532 13.0513 76.8745V20.1877C15.4387 20.7593 16.9482 21.9446 16.9482 22.9316ZM16.9482 87.4474C16.9482 89.8399 13.7852 91.8612 10.0415 91.8612C6.113 91.8612 3.15044 89.6447 3.15044 86.7051C3.15044 83.7283 4.22943 80.9089 7.0317 79.4851V82.1204C7.14329 83.1457 7.71487 83.6658 8.74621 83.6809C10.9242 83.4759 13.3319 83.7196 15.2793 84.7887C16.403 85.4059 17.0397 86.1895 16.9482 87.4474ZM27.0223 103.865C27.0217 103.865 27.0215 103.865 27.0206 103.865C23.0932 103.865 20.1306 101.649 20.1302 98.7104C20.1298 95.7339 21.2082 92.9138 24.0104 91.4896L24.0108 94.1251C24.1226 95.1502 24.6942 95.6703 25.7253 95.6852C28.3843 95.4352 34.0557 95.862 33.9282 99.4502C33.9286 101.843 30.7661 103.865 27.0223 103.865ZM37.0527 34.9338C37.0523 32.1121 34.216 29.765 30.02 28.987L30.0194 25.583C29.9295 24.6278 29.407 24.1053 28.4518 24.0159C27.6518 24.0161 26.8484 24.1076 26.0581 24.2786V13.5196H43.6717V44.8154C43.6717 45.6811 44.3734 46.3828 45.2391 46.3828H55.0181C55.8839 46.3828 56.5854 45.6811 56.5854 44.8154V13.5196H64.0219V53.1029V73.4127H37.059L37.0527 34.9338ZM98.0477 63.8209C97.4927 63.5645 96.8396 63.6539 96.3742 64.0504L85.3781 73.4127H67.1567V54.6703H103.865V73.4127H98.9579V65.2439C98.9579 64.6328 98.6026 64.0773 98.0477 63.8209Z"
              fill="white"/>
        <path d="M74.6784 44.9141H89.1203C89.5328 44.9141 89.9391 44.7452 90.2302 44.4532L97.451 37.2381C97.7453 36.944 97.9106 36.5451 97.9106 36.1292L97.9085 21.7078C97.9085 20.8597 97.189 20.1406 96.3409 20.1406L81.8972 20.1423C81.4819 20.1423 81.0832 20.3074 80.7896 20.601L73.5717 27.8133C73.2803 28.1038 73.1108 28.5121 73.1108 28.9232V43.3467C73.111 44.2125 73.8128 44.9141 74.6784 44.9141ZM76.2458 30.4906H87.5529V41.7793H76.2458V30.4906ZM90.6879 39.5649V29.5729L94.7748 25.4894L94.7763 35.4801L90.6879 39.5649ZM82.5467 23.2771L92.555 23.2758L88.4716 27.3558H78.4644L82.5467 23.2771Z"
              fill="white"/>
        <path d="M82.0918 65.6387H76.8983C74.8718 65.6387 74.8718 68.7734 76.8983 68.7734H82.0918C84.1183 68.7734 84.1183 65.6387 82.0918 65.6387Z"
              fill="white"/>
        <path d="M90.2058 59.4023H76.8983C74.8718 59.4023 74.8718 62.5371 76.8983 62.5371H90.2058C92.2323 62.5371 92.2323 59.4023 90.2058 59.4023Z"
              fill="white"/>
        <path d="M88.7612 80.5239L69.8367 96.6366C68.7498 97.5622 69.425 99.3973 70.8528 99.3973H89.7773C90.6432 99.3973 91.3447 98.6956 91.3447 97.8299V81.7172C91.3447 80.5256 89.8396 79.6055 88.7612 80.5239ZM88.2099 96.2626H75.1114L88.2099 85.1103V96.2626Z"
              fill="white"/>
    </g>
</svg>
