<svg width="56" height="56" viewBox="0 0 56 56" fill="none" xmlns="http://www.w3.org/2000/svg">
    <path d="M14.2835 5.68488C13.9221 4.8895 13.1241 4.375 12.25 4.375C11.3759 4.375 10.5779 4.8895 10.2165 5.68488L7 13.8338V14.875C7 17.7704 9.35462 20.125 12.25 20.125C15.1454 20.125 17.5 17.7704 17.5 14.8321C17.5 14.1698 17.3766 13.5214 17.1343 12.9045L14.2835 5.68488ZM12.25 18.375C10.3197 18.375 8.75 16.8053 8.75 14.875V14.1663L11.8169 6.39275C11.9823 6.062 12.5545 6.10837 12.6735 6.36737L15.5059 13.5459C15.6678 13.958 15.75 14.3903 15.75 14.875C15.75 16.8053 14.1803 18.375 12.25 18.375Z"
          fill="#6EBC61"/>
    <path d="M55.125 28.875V27.125C55.125 26.1599 54.3401 25.375 53.375 25.375V14C53.375 10.6234 50.6266 7.875 47.25 7.875H42.875C42.875 6.90987 42.0901 6.125 41.125 6.125H39.375C38.4099 6.125 37.625 6.90987 37.625 7.875H32.375C32.375 6.90987 31.5901 6.125 30.625 6.125H28.875C27.9099 6.125 27.125 6.90987 27.125 7.875H22.7474C21.0297 3.76863 16.9724 0.875 12.25 0.875C5.978 0.875 0.875 5.978 0.875 12.25C0.875 18.522 5.978 23.625 12.25 23.625C16.9724 23.625 21.0297 20.7314 22.7474 16.625H27.125C27.125 17.5901 27.9099 18.375 28.875 18.375H30.625C31.5901 18.375 32.375 17.5901 32.375 16.625H37.625C37.625 17.5901 38.4099 18.375 39.375 18.375H41.125C42.0901 18.375 42.875 17.5901 42.875 16.625H44.625V25.375C43.6599 25.375 42.875 26.1599 42.875 27.125V28.875C42.875 29.8401 43.6599 30.625 44.625 30.625V32.375H41.125C41.125 31.4099 40.3401 30.625 39.375 30.625H37.625C36.6599 30.625 35.875 31.4099 35.875 32.375H31.5V28.875H32.375C33.8223 28.875 35 27.6973 35 26.25C35 24.8027 33.8223 23.625 32.375 23.625H31.5C31.5 21.6947 29.9303 20.125 28 20.125C26.0697 20.125 24.5 21.6947 24.5 23.625H23.625C22.1777 23.625 21 24.8027 21 26.25C21 27.6973 22.1777 28.875 23.625 28.875H24.5V32.375H20.125C20.125 31.4099 19.3401 30.625 18.375 30.625H16.625C15.6599 30.625 14.875 31.4099 14.875 32.375H10.5C7.12337 32.375 4.375 35.1234 4.375 38.5V44.625C3.40987 44.625 2.625 45.4099 2.625 46.375V48.125C2.625 49.0901 3.40987 49.875 4.375 49.875V55.125H13.125V49.875C14.0901 49.875 14.875 49.0901 14.875 48.125V46.375C14.875 45.4099 14.0901 44.625 13.125 44.625V41.125H14.875C14.875 42.0901 15.6599 42.875 16.625 42.875H18.375C19.3401 42.875 20.125 42.0901 20.125 41.125H35.875C35.875 42.0901 36.6599 42.875 37.625 42.875H39.375C40.3401 42.875 41.125 42.0901 41.125 41.125H44.625V44.625C43.6599 44.625 42.875 45.4099 42.875 46.375V48.125C42.875 49.0901 43.6599 49.875 44.625 49.875V55.125H53.375V49.875C54.3401 49.875 55.125 49.0901 55.125 48.125V46.375C55.125 45.4099 54.3401 44.625 53.375 44.625V30.625C54.3401 30.625 55.125 29.8401 55.125 28.875ZM12.25 21.875C6.94312 21.875 2.625 17.5569 2.625 12.25C2.625 6.94312 6.94312 2.625 12.25 2.625C17.5569 2.625 21.875 6.94312 21.875 12.25C21.875 17.5569 17.5569 21.875 12.25 21.875ZM23.3074 14.875C23.5077 14.0306 23.625 13.1547 23.625 12.25C23.625 11.3453 23.5077 10.4694 23.3074 9.625H27.125V14.875H23.3074ZM28.875 16.625V7.875H30.625L30.6267 16.625H28.875ZM32.375 14.875V9.625H37.625V14.875H32.375ZM11.375 53.375H6.125V49.875H11.375V53.375ZM13.1267 48.125H4.375V46.375H13.125L13.1267 48.125ZM13.125 39.375C12.1599 39.375 11.375 40.1599 11.375 41.125V44.625H6.125V38.5C6.125 36.0876 8.08763 34.125 10.5 34.125H14.875V39.375H13.125ZM28 21.875C28.9651 21.875 29.75 22.6599 29.75 23.625H26.25C26.25 22.6599 27.0349 21.875 28 21.875ZM22.75 26.25C22.75 25.767 23.142 25.375 23.625 25.375H32.375C32.858 25.375 33.25 25.767 33.25 26.25C33.25 26.733 32.858 27.125 32.375 27.125H23.625C23.142 27.125 22.75 26.733 22.75 26.25ZM26.25 28.875H29.75V32.375H26.25V28.875ZM16.625 41.125V32.375H18.375L18.3768 41.125H16.625ZM20.125 39.375V34.125H35.875V39.375H20.125ZM39.375 16.625V7.875H41.125L41.1267 16.625H39.375ZM44.625 14.875H42.875V9.625H47.25C49.6624 9.625 51.625 11.5876 51.625 14V25.375H46.375V16.625C46.375 15.6599 45.5901 14.875 44.625 14.875ZM44.625 27.125H53.375L53.3767 28.875H44.625V27.125ZM37.625 41.125V32.375H39.375L39.3767 41.125H37.625ZM41.125 39.375V34.125H44.625V39.375H41.125ZM51.625 53.375H46.375V49.875H51.625V53.375ZM53.3767 48.125H44.625V46.375H53.375L53.3767 48.125ZM51.625 44.625H46.375V30.625H51.625V44.625Z"
          fill="#6EBC61"/>
    <path d="M48.125 34.125H49.875V35.875H48.125V34.125Z" fill="#6EBC61"/>
    <path d="M48.125 41.125H49.875V42.875H48.125V41.125Z" fill="#6EBC61"/>
    <path d="M48.125 37.625H49.875V39.375H48.125V37.625Z" fill="#6EBC61"/>
    <path d="M28.875 35.875H30.625V37.625H28.875V35.875Z" fill="#6EBC61"/>
    <path d="M21.875 35.875H23.625V37.625H21.875V35.875Z" fill="#6EBC61"/>
    <path d="M25.375 35.875H27.125V37.625H25.375V35.875Z" fill="#6EBC61"/>
    <path d="M48.125 21.875H49.875V23.625H48.125V21.875Z" fill="#6EBC61"/>
    <path d="M48.125 14.875H49.875V16.625H48.125V14.875Z" fill="#6EBC61"/>
    <path d="M48.125 18.375H49.875V20.125H48.125V18.375Z" fill="#6EBC61"/>
</svg>
