<svg width="22" height="22" viewBox="0 0 22 22" fill="none" xmlns="http://www.w3.org/2000/svg">
    <path d="M18.464 17.7171C18.5693 17.0234 18.4037 16.3262 17.9978 15.7539C17.203 14.6333 16.491 13.9386 15.757 13.5676C14.7457 13.0565 13.7018 13.1505 12.6544 13.847C12.6528 13.8481 12.6513 13.8492 12.6497 13.8502L11.5326 14.6063C11.0073 14.1638 10.0014 13.2202 8.99954 11.7518L8.92525 11.643C7.92318 10.1743 7.41147 8.89346 7.19128 8.24364L8.30276 7.47921C8.30433 7.47813 8.3059 7.47706 8.30748 7.47595C9.33803 6.75486 9.80626 5.81716 9.69918 4.68898C9.62142 3.8703 9.23429 2.95396 8.48074 1.80522C8.09594 1.21862 7.50716 0.810158 6.82281 0.655185C6.13805 0.500097 5.43113 0.61514 4.83104 0.978804L4.80768 0.992985C4.79686 0.999553 4.78619 1.00644 4.77569 1.01357C3.56134 1.8421 2.75584 3.17094 2.44619 4.85646C1.92024 7.71978 2.8746 11.2881 4.99903 14.4017C5.39963 14.9889 5.86861 15.5836 6.39292 16.1695C6.65372 16.4609 7.10137 16.4858 7.3928 16.225C7.68427 15.9641 7.70907 15.5165 7.44825 15.2251C6.96521 14.6853 6.53478 14.1397 6.16891 13.6036C4.25001 10.7912 3.37906 7.61688 3.83912 5.11236C4.07762 3.81426 4.67217 2.80547 5.5589 2.19371L5.56513 2.18991C6.15664 1.83144 6.91715 2.00368 7.29658 2.58206C8.74522 4.79051 8.44821 5.64788 7.49802 6.31381L5.96273 7.36974C5.72197 7.53535 5.60763 7.83185 5.67488 8.11623C5.69373 8.19596 6.15531 10.096 7.75556 12.4415L7.8299 12.5502C9.42995 14.8954 11.0308 16.0182 11.0982 16.0648C11.3384 16.2312 11.6563 16.2328 11.8982 16.069L13.4414 15.0246C14.4081 14.3827 15.3147 14.4189 16.8426 16.5732C17.2428 17.1374 17.1258 17.9083 16.5764 18.3283L16.5705 18.3328C15.6847 18.9305 14.5402 19.118 13.2574 18.8758C13.2468 18.8738 13.2362 18.8718 13.2256 18.8697C12.2013 18.6709 11.067 18.1656 9.94562 17.4085C9.62159 17.1896 9.18133 17.2749 8.96251 17.5991C8.74365 17.9232 8.82897 18.3634 9.15312 18.5822C10.4494 19.4574 11.7288 20.0219 12.9559 20.2601C12.9689 20.2626 12.9819 20.265 12.9949 20.2675C14.6619 20.5823 16.1787 20.3147 17.3837 19.4926C17.3942 19.4854 17.4044 19.478 17.4145 19.4703L17.4363 19.4536C17.9938 19.0275 18.3588 18.4108 18.464 17.7171Z"
          fill="white"/>
</svg>
