<svg width="66" height="66" viewBox="0 0 66 66" fill="none" xmlns="http://www.w3.org/2000/svg">
    <path d="M48.1343 0H17.8656C8.01433 0 0 8.01433 0 17.8656V48.1348C0 57.9855 8.01433 65.9999 17.8656 65.9999H48.1348C57.9855 65.9999 65.9999 57.9855 65.9999 48.1348V17.8656C65.9999 8.01433 57.9855 0 48.1343 0V0ZM62.1307 48.1348C62.1307 55.8521 55.8521 62.1307 48.1343 62.1307H17.8656C10.1478 62.1307 3.86919 55.8521 3.86919 48.1348V17.8656C3.86919 10.1478 10.1478 3.86919 17.8656 3.86919H48.1348C55.8521 3.86919 62.1307 10.1478 62.1307 17.8656V48.1348Z"
          fill="#6EBC61"/>
    <path d="M33 14.9531C23.049 14.9531 14.9536 23.0485 14.9536 32.9995C14.9536 42.9504 23.049 51.0458 33 51.0458C42.9509 51.0458 51.0463 42.9504 51.0463 32.9995C51.0463 23.0485 42.9509 14.9531 33 14.9531ZM33 47.1766C25.183 47.1766 18.8228 40.8169 18.8228 32.9995C18.8228 25.1825 25.183 18.8223 33 18.8223C40.8174 18.8223 47.1771 25.1825 47.1771 32.9995C47.1771 40.8169 40.8174 47.1766 33 47.1766Z"
          fill="#6EBC61"/>
    <path d="M51.4777 8.54492C48.5371 8.54492 46.1453 10.9372 46.1453 13.8774C46.1453 16.8181 48.5371 19.2104 51.4777 19.2104C54.4184 19.2104 56.8107 16.8181 56.8107 13.8774C56.8107 10.9367 54.4184 8.54492 51.4777 8.54492ZM51.4777 15.3407C50.6711 15.3407 50.0145 14.6841 50.0145 13.8774C50.0145 13.0702 50.6711 12.4141 51.4777 12.4141C52.2849 12.4141 52.9415 13.0702 52.9415 13.8774C52.9415 14.6841 52.2849 15.3407 51.4777 15.3407Z"
          fill="#6EBC61"/>
</svg>
