<svg width="9" height="14" viewBox="0 0 9 14" fill="none" xmlns="http://www.w3.org/2000/svg">
    <path d="M0.396902 6.41333L6.58809 0.222257C6.73128 0.0789493 6.92244 0 7.12626 0C7.33008 0 7.52123 0.0789493 7.66443 0.222257L8.12036 0.678082C8.41705 0.975103 8.41705 1.45785 8.12036 1.75442L2.92147 6.95331L8.12613 12.158C8.26933 12.3013 8.34839 12.4923 8.34839 12.696C8.34839 12.9 8.26933 13.091 8.12613 13.2344L7.67019 13.6901C7.52689 13.8334 7.33585 13.9124 7.13203 13.9124C6.92821 13.9124 6.73705 13.8334 6.59386 13.6901L0.396902 7.4934C0.253368 7.34964 0.174532 7.15769 0.174985 6.95365C0.174532 6.74881 0.253368 6.55698 0.396902 6.41333Z"
          fill="white"/>
</svg>
