<svg width="211" height="20" viewBox="0 0 211 20" fill="none" xmlns="http://www.w3.org/2000/svg">
    <g clip-path="url(#clip0)">
        <path d="M81.8828 5.55356L76.5905 19.8128H73.3665L69.659 9.9874L65.8989 19.8128H62.6677L57.4152 5.55356H60.5848L64.3666 16.0756L68.3151 5.55356H71.1369L75.0057 16.1296L78.8998 5.55356H81.8828Z"
              fill="#302F3A"/>
        <path d="M86.3149 19.0657C85.1786 18.4693 84.234 17.5673 83.589 16.4626C82.9251 15.3134 82.5859 14.0073 82.6074 12.6823C82.5853 11.3617 82.9246 10.06 83.589 8.91628C84.2375 7.81805 85.1816 6.92152 86.3149 6.32762C87.5352 5.71344 88.8837 5.3934 90.2516 5.3934C91.6194 5.3934 92.9679 5.71344 94.1882 6.32762C95.3215 6.92152 96.2656 7.81805 96.9141 8.91628C97.578 10.0602 97.9167 11.3619 97.8939 12.6823C97.916 14.0071 97.5775 15.3133 96.9141 16.4626C96.2671 17.5676 95.3207 18.4696 94.1828 19.0657C92.9625 19.6799 91.6139 19.9999 90.2461 19.9999C88.8783 19.9999 87.5297 19.6799 86.3095 19.0657H86.3149ZM93.3007 15.9154C94.1073 15.0969 94.5106 14.0168 94.5106 12.6751C94.5106 11.3333 94.1073 10.2562 93.3007 9.44373C92.9034 9.03969 92.4261 8.72197 91.8989 8.51064C91.3717 8.29932 90.8061 8.199 90.238 8.21601C89.0027 8.21601 87.9866 8.62525 87.1897 9.44373C86.3928 10.2622 85.9937 11.3393 85.9925 12.6751C85.9925 14.0108 86.3916 15.0909 87.1897 15.9154C87.9878 16.7399 89.0039 17.1491 90.238 17.1431C90.8062 17.1606 91.3719 17.0604 91.8991 16.8491C92.4264 16.6377 92.9037 16.3198 93.3007 15.9154Z"
              fill="#302F3A"/>
        <path d="M103.644 19.0657C102.508 18.4693 101.562 17.5673 100.917 16.4626C100.253 15.3133 99.9147 14.0071 99.9368 12.6822C99.9141 11.3619 100.253 10.0602 100.917 8.91626C101.566 7.81778 102.51 6.92123 103.644 6.3276C104.864 5.71344 106.213 5.3934 107.58 5.3934C108.948 5.3934 110.296 5.71344 111.516 6.3276C112.65 6.92123 113.595 7.81778 114.244 8.91626C114.907 10.0602 115.246 11.3619 115.223 12.6822C115.246 14.0071 114.907 15.3133 114.244 16.4626C113.598 17.5673 112.653 18.4693 111.516 19.0657C110.296 19.6798 108.948 19.9999 107.58 19.9999C106.213 19.9999 104.864 19.6798 103.644 19.0657ZM110.628 15.9154C111.436 15.0969 111.839 14.0168 111.838 12.675C111.837 11.3333 111.434 10.2592 110.628 9.45271C110.232 9.04854 109.755 8.73072 109.228 8.51937C108.701 8.30803 108.135 8.20779 107.567 8.22499C106.331 8.22499 105.314 8.63423 104.517 9.45271C103.72 10.2712 103.322 11.3483 103.322 12.684C103.322 14.0198 103.72 15.0999 104.517 15.9244C105.314 16.7488 106.331 17.1581 107.567 17.1521C108.136 17.1686 108.702 17.0671 109.229 16.8542C109.756 16.6412 110.233 16.3215 110.628 15.9154Z"
              fill="#302F3A"/>
        <path d="M132.497 0V19.8128H129.275V17.9712C128.728 18.6413 128.022 19.1644 127.219 19.4924C126.362 19.8388 125.444 20.0114 124.518 20C123.221 20.0221 121.94 19.7121 120.798 19.0999C119.705 18.5041 118.805 17.6104 118.205 16.5239C117.562 15.3489 117.238 14.0282 117.265 12.6913C117.237 11.3588 117.561 10.0425 118.205 8.87309C118.809 7.78753 119.712 6.89531 120.807 6.30063C121.949 5.68844 123.23 5.37848 124.528 5.40054C125.42 5.38911 126.305 5.55244 127.134 5.88119C127.912 6.19256 128.603 6.68669 129.148 7.32133V0H132.497ZM127.098 16.5959C127.745 16.2282 128.276 15.6866 128.628 15.0333C129.016 14.3115 129.211 13.5024 129.193 12.6841C129.209 11.8688 129.014 11.0632 128.628 10.3438C128.276 9.69049 127.745 9.14898 127.098 8.78128C126.43 8.42299 125.683 8.2354 124.924 8.2354C124.165 8.2354 123.418 8.42299 122.751 8.78128C122.103 9.14925 121.572 9.69066 121.218 10.3438C120.834 11.0636 120.64 11.8691 120.655 12.6841C120.638 13.5021 120.832 14.311 121.218 15.0333C121.572 15.6865 122.103 16.2279 122.751 16.5959C123.418 16.9542 124.165 17.1417 124.924 17.1417C125.683 17.1417 126.43 16.9542 127.098 16.5959Z"
              fill="#302F3A"/>
        <path d="M137.925 19.5464C136.979 19.3173 136.079 18.9288 135.264 18.3978L136.554 15.8614C137.271 16.321 138.056 16.6678 138.88 16.8893C139.747 17.1446 140.647 17.2767 141.551 17.2817C143.558 17.2817 144.561 16.7567 144.56 15.7066C144.56 15.2079 144.306 14.8623 143.795 14.6661C142.996 14.4014 142.173 14.2134 141.337 14.1044C140.357 13.9719 139.389 13.7667 138.44 13.4906C137.699 13.2605 137.032 12.8415 136.505 12.2754C135.958 11.6982 135.685 10.8929 135.687 9.85959C135.687 8.50585 136.255 7.42575 137.393 6.61927C138.53 5.81278 140.068 5.40654 142.008 5.40054C143.002 5.4019 143.994 5.5136 144.963 5.73358C145.812 5.90616 146.628 6.20988 147.381 6.63367L146.092 9.15932C144.843 8.44333 143.422 8.0775 141.98 8.10081C140.998 8.10081 140.25 8.24723 139.738 8.54006C139.226 8.83289 138.971 9.22053 138.972 9.70297C138.972 10.2358 139.246 10.6139 139.792 10.8371C140.614 11.1309 141.464 11.3408 142.328 11.4635C143.282 11.5994 144.225 11.8052 145.148 12.0792C145.871 12.3029 146.523 12.7078 147.043 13.2547C147.569 13.8056 147.833 14.5857 147.834 15.595C147.834 16.9295 147.252 17.9976 146.088 18.7993C144.924 19.601 143.339 20.0012 141.334 20C140.182 20.0014 139.036 19.8488 137.925 19.5464Z"
              fill="#302F3A"/>
        <path d="M159.363 19.0387C158.939 19.3745 158.45 19.6197 157.926 19.7588C157.345 19.921 156.744 20.0016 156.141 19.9982C154.562 19.9982 153.344 19.589 152.486 18.7705C151.627 17.952 151.197 16.7597 151.196 15.1935V8.33125H148.841V5.66159H151.196V2.40326H154.554V5.66159H158.395V8.33125H154.554V15.1215C154.554 15.8146 154.724 16.3457 155.065 16.7111C155.405 17.0765 155.898 17.2511 156.543 17.2511C157.219 17.2762 157.882 17.0689 158.423 16.6643L159.363 19.0387Z"
              fill="#302F3A"/>
        <path d="M164.173 19.0657C163.036 18.4693 162.091 17.5673 161.445 16.4626C160.782 15.3133 160.443 14.0071 160.465 12.6822C160.443 11.3619 160.781 10.0602 161.445 8.91626C162.094 7.81778 163.039 6.92123 164.173 6.3276C165.393 5.71344 166.741 5.3934 168.109 5.3934C169.476 5.3934 170.825 5.71344 172.045 6.3276C173.182 6.92036 174.13 7.81768 174.781 8.91806C175.445 10.062 175.784 11.3637 175.761 12.684C175.783 14.0089 175.445 15.3151 174.781 16.4644C174.136 17.5691 173.19 18.4711 172.054 19.0675C170.834 19.6816 169.485 20.0017 168.118 20.0017C166.75 20.0017 165.402 19.6816 164.182 19.0675L164.173 19.0657ZM171.159 15.9154C171.965 15.0969 172.368 14.0168 172.367 12.675C172.366 11.3333 171.963 10.2592 171.159 9.45271C170.761 9.04867 170.284 8.73095 169.757 8.51962C169.23 8.3083 168.664 8.20798 168.096 8.22499C166.858 8.22499 165.842 8.63423 165.046 9.45271C164.25 10.2712 163.852 11.3483 163.851 12.684C163.851 14.0198 164.249 15.0999 165.046 15.9244C165.843 16.7488 166.86 17.1581 168.096 17.1521C168.665 17.1684 169.231 17.0668 169.758 16.8539C170.286 16.641 170.763 16.3214 171.159 15.9154Z"
              fill="#302F3A"/>
        <path d="M191.468 6.96851C192.555 8.01982 193.098 9.57997 193.098 11.649V19.82H189.74V12.0792C189.74 10.8335 189.444 9.89441 188.852 9.26194C188.261 8.62948 187.419 8.31325 186.328 8.31325C185.092 8.31325 184.116 8.68288 183.399 9.42216C182.682 10.1614 182.327 11.2211 182.334 12.6013V19.811H178.976V5.55357H182.173V7.39696C182.735 6.73256 183.455 6.21833 184.268 5.90101C185.176 5.55385 186.143 5.38393 187.116 5.40056C188.926 5.40056 190.376 5.92321 191.468 6.96851Z"
              fill="#302F3A"/>
        <path d="M210.946 13.7516H199.689C199.855 14.7528 200.41 15.6493 201.234 16.2484C202.067 16.8617 203.101 17.1689 204.337 17.1701C205.906 17.1701 207.205 16.6541 208.233 15.622L210.033 17.6778C209.377 18.4511 208.536 19.0479 207.588 19.4131C206.378 19.8533 205.091 20.0492 203.804 19.9896C202.517 19.9299 201.255 19.6159 200.091 19.0657C198.932 18.481 197.967 17.5774 197.311 16.4626C196.648 15.3133 196.309 14.0071 196.331 12.6823C196.311 11.3702 196.64 10.0762 197.284 8.9307C197.904 7.83391 198.821 6.93206 199.932 6.32764C201.101 5.69605 202.415 5.37662 203.746 5.40054C205.054 5.37831 206.346 5.69536 207.494 6.32043C208.583 6.92287 209.478 7.82142 210.073 8.91089C210.71 10.0953 211.031 11.4222 211.005 12.7651C211.005 12.9955 210.982 13.3213 210.946 13.7516ZM201.018 9.0117C200.269 9.65663 199.786 10.5543 199.662 11.532H207.812C207.704 10.5504 207.225 9.64618 206.472 9.00199C205.719 8.3578 204.748 8.02158 203.755 8.06121C202.756 8.03155 201.781 8.37009 201.018 9.0117Z"
              fill="#302F3A"/>
        <path d="M20.7746 14.4752L15.4642 18.9325H23.4969C24.7975 18.9323 26.0562 18.4751 27.0504 17.6418L32.3609 13.1845H24.3282C23.0274 13.1839 21.7685 13.6412 20.7746 14.4752Z"
              fill="#6EBC61"/>
        <path d="M8.86404 13.1827C7.56305 13.1826 6.30407 13.6406 5.31045 14.4753L0 18.9325H8.0327C9.33519 18.9336 10.596 18.4764 11.5917 17.6418L16.8967 13.1827H8.86404Z"
              fill="#C6C6C6"/>
        <path d="M23.4969 10.5095C24.7975 10.5095 26.0562 10.0523 27.0504 9.21875L32.3609 4.76151H24.3282C23.0275 4.76152 21.7688 5.21872 20.7746 6.05223L15.4642 10.5095H23.4969Z"
              fill="#6EBC61"/>
        <path d="M39.7922 4.76151C38.4916 4.76152 37.2329 5.21872 36.2387 6.05223L30.9282 10.5095H38.9609C40.2616 10.5095 41.5203 10.0523 42.5145 9.21875L47.8249 4.76151H39.7922Z"
              fill="#6EBC61"/>
        <path d="M11.5917 9.21875L16.8967 4.76151H8.86404C7.56339 4.76152 6.30464 5.21872 5.31045 6.05223L0 10.5095H8.0327C9.33522 10.5107 10.5961 10.0535 11.5917 9.21875Z"
              fill="#6EBC61"/>
    </g>
    <defs>
        <clipPath id="clip0">
            <rect width="211" height="20" fill="white"/>
        </clipPath>
    </defs>
</svg>
