<svg width="208" height="208" viewBox="0 0 208 208" fill="none" xmlns="http://www.w3.org/2000/svg">
    <g clip-path="url(#clip0)">
        <path d="M180.267 52H187.2V100.533H180.267V52Z" fill="#DCDCDC"/>
        <path d="M0.475651 169.811C0.629687 170.478 0.832812 171.133 1.08503 171.769C1.1849 172.011 1.33893 172.223 1.45234 172.463C2.45781 174.691 4.0862 176.582 6.13945 177.909C6.64557 178.227 7.17031 178.513 7.71367 178.765C7.97943 178.897 8.22318 179.07 8.50078 179.188C9.11862 179.427 9.75339 179.622 10.4 179.771C10.6421 179.833 10.8638 179.937 11.1109 179.986C12.0182 180.17 12.9408 180.265 13.8667 180.267H107.467V173.333H13.8667C13.4012 173.333 12.9357 173.286 12.4803 173.195C12.3128 173.159 12.157 173.09 11.9945 173.046C11.7203 172.978 11.4512 172.895 11.1871 172.795C10.9501 172.682 10.7182 172.555 10.4931 172.418C10.3374 172.328 10.1715 172.258 10.0225 172.16C9.65013 171.906 9.30143 171.617 8.98151 171.297C8.66328 170.979 8.37552 170.632 8.12161 170.258C7.99128 170.06 7.8931 169.838 7.7763 169.626C7.65781 169.415 7.56471 169.279 7.48516 169.083C7.37005 168.792 7.27695 168.492 7.20755 168.187C7.16862 168.052 7.10938 167.925 7.08229 167.783C6.66758 165.745 7.18893 163.627 8.50417 162.016C9.81771 160.404 11.7863 159.468 13.8667 159.467H24.2667C26.1811 159.467 27.7333 157.914 27.7333 156V34.6667H149.067V27.7333H27.7333V10.4C27.7333 8.48384 26.1811 6.93332 24.2667 6.93332H13.8667C6.20885 6.93332 0 13.1405 0 20.8V166.4C0 167.331 0.0947917 168.26 0.28099 169.173C0.326693 169.388 0.419792 169.592 0.475651 169.811ZM6.93333 20.8C6.93333 16.9694 10.0378 13.8667 13.8667 13.8667H20.8V152.533H13.8667C11.4309 152.528 9.03906 153.171 6.93333 154.394V20.8Z"
              fill="#DCDCDC"/>
        <path d="M94.3414 78.5789L86.9477 69.3333H117.867V62.4H79.7333C78.7059 62.4051 77.7359 62.8655 77.0809 63.6577C77.0809 63.678 77.0402 63.6814 77.0267 63.7L49.2934 98.3667C49.1122 98.6003 48.9599 98.8575 48.8414 99.1284C48.8414 99.1521 48.8143 99.1707 48.8042 99.1944C48.6535 99.5752 48.5706 99.9798 48.5604 100.391C48.5604 100.442 48.5333 100.484 48.5333 100.533V142.133C48.5333 144.048 50.0855 145.6 52 145.6H142.133V138.667H110.933V104H159.467V124.8H166.4V100.533C166.4 100.484 166.373 100.442 166.373 100.391C166.363 99.9815 166.282 99.5786 166.129 99.1978C166.129 99.1673 166.095 99.1453 166.085 99.1182C165.97 98.8508 165.821 98.5986 165.64 98.37L155.24 85.3548L149.827 89.6814L155.719 97.0667H109.134L94.3414 78.5789ZM79.7333 71.412L93.4121 88.5134L100.252 97.0667H59.2143L79.7333 71.412ZM55.4667 104H104V138.667H93.6V114.4C93.6 112.484 92.0478 110.933 90.1333 110.933H69.3333C67.4189 110.933 65.8667 112.484 65.8667 114.4V138.667H55.4667V104ZM72.8 138.667V117.867H86.6667V138.667H72.8Z"
              fill="#6EBC61"/>
        <path d="M128.267 110.933C126.352 110.933 124.8 112.484 124.8 114.4V128.267C124.8 130.181 126.352 131.733 128.267 131.733H142.133C144.048 131.733 145.6 130.181 145.6 128.267V114.4C145.6 112.484 144.048 110.933 142.133 110.933H128.267ZM138.667 124.8H131.733V117.867H138.667V124.8Z"
              fill="#6EBC61"/>
        <path d="M205.861 93.8624C204.566 93.3258 203.074 93.6237 202.082 94.6156L94.6157 202.082C93.6255 203.073 93.3275 204.564 93.8641 205.859C94.4007 207.154 95.6652 207.998 97.0667 208H204.533C206.448 208 208 206.448 208 204.533V97.0667C208 95.6634 207.155 94.399 205.861 93.8624ZM201.067 201.067H105.435L201.067 105.434V201.067Z"
              fill="#DCDCDC"/>
        <path d="M145.864 185.06C146.401 186.355 147.665 187.2 149.067 187.2H183.733C185.648 187.2 187.2 185.648 187.2 183.733V149.067C187.2 147.663 186.355 146.401 185.06 145.864C183.765 145.327 182.274 145.624 181.282 146.616L146.616 181.282C145.624 182.273 145.327 183.764 145.864 185.06ZM180.267 157.434V180.267H157.435L180.267 157.434Z"
              fill="#DCDCDC"/>
        <path d="M193.118 1.01562C191.764 -0.338542 189.57 -0.338542 188.216 1.01562L125.816 63.4156C125.436 63.7965 125.15 64.2603 124.979 64.7698L121.513 75.1698C121.098 76.4156 121.421 77.7884 122.349 78.716L123.365 79.7333L115.416 87.6823L120.318 92.5827L128.267 84.6337L129.282 85.6493C129.932 86.301 130.814 86.665 131.733 86.6667C132.106 86.665 132.475 86.6057 132.829 86.4889L143.229 83.0223C143.74 82.8513 144.204 82.5652 144.584 82.1827L206.984 19.7827C208.337 18.4302 208.337 16.2348 206.984 14.8823L193.118 1.01562ZM134.902 64.1333L149.067 49.9671L158.031 58.9333L143.867 73.0979L134.902 64.1333ZM132.673 79.234L128.769 75.3306L130.648 69.682L138.32 77.3517L132.673 79.234ZM162.933 54.0312L153.969 45.0667L190.667 8.36706L199.631 17.3333L162.933 54.0312Z"
              fill="#DCDCDC"/>
        <path d="M34.6667 145.6V156C34.6667 157.914 36.2189 159.467 38.1333 159.467H48.5333V152.533H41.6V145.6H34.6667Z"
              fill="#DCDCDC"/>
        <path d="M48.5333 41.6H38.1333C36.2189 41.6 34.6667 43.1505 34.6667 45.0667V55.4667H41.6V48.5333H48.5333V41.6Z"
              fill="#DCDCDC"/>
    </g>
    <defs>
        <clipPath id="clip0">
            <rect width="208" height="208" fill="white"/>
        </clipPath>
    </defs>
</svg>
